<svg width="188" height="137" viewBox="0 0 188 137" fill="none" xmlns="http://www.w3.org/2000/svg">
<g filter="url(#filter0_d_202_127)">
<rect x="5" y="4" width="178" height="127" fill="white"/>
<rect x="5.25" y="4.25" width="177.5" height="126.5" stroke="#2A2A2A" stroke-opacity="0.15" stroke-width="0.5"/>
<path d="M34.8212 108.25L31.8672 100.172H30.0332L33.7292 110H35.8992L39.5952 100.172H37.7612L34.8212 108.25ZM46.437 106.472C46.437 104.106 44.953 102.888 42.951 102.888C40.809 102.888 39.325 104.288 39.325 106.514C39.325 108.74 40.781 110.14 43.007 110.14C44.561 110.14 45.793 109.342 46.269 107.97L44.729 107.746C44.421 108.446 43.805 108.824 42.993 108.824C41.901 108.824 41.061 108.096 40.977 106.85H46.423L46.437 106.472ZM42.965 104.134C43.945 104.134 44.687 104.778 44.785 105.814H41.005C41.173 104.722 41.887 104.134 42.965 104.134ZM53.0864 104.064C52.6804 103.364 51.8544 102.888 50.7904 102.888C48.9984 102.888 47.5564 104.26 47.5564 106.374C47.5564 108.488 48.9984 109.874 50.7764 109.874C51.8124 109.874 52.6804 109.412 53.0864 108.74V109.986C53.0864 111.344 52.4704 112.212 51.1124 112.212C50.1184 112.212 49.4604 111.694 49.0544 110.756L47.6684 111.33C48.1584 112.632 49.2504 113.5 51.1824 113.5C53.3664 113.5 54.7524 112.38 54.7524 109.874V103.028H53.0864V104.064ZM51.1684 108.53C50.0204 108.53 49.1664 107.62 49.1664 106.374C49.1664 105.128 50.0064 104.218 51.1684 104.218C52.3444 104.218 53.1844 105.128 53.1844 106.374C53.1844 107.62 52.3304 108.53 51.1684 108.53ZM63.2944 106.472C63.2944 104.106 61.8104 102.888 59.8084 102.888C57.6664 102.888 56.1824 104.288 56.1824 106.514C56.1824 108.74 57.6384 110.14 59.8644 110.14C61.4184 110.14 62.6504 109.342 63.1264 107.97L61.5864 107.746C61.2784 108.446 60.6624 108.824 59.8504 108.824C58.7584 108.824 57.9184 108.096 57.8344 106.85H63.2804L63.2944 106.472ZM59.8224 104.134C60.8024 104.134 61.5444 104.778 61.6424 105.814H57.8624C58.0304 104.722 58.7444 104.134 59.8224 104.134ZM68.6171 110V108.67H68.0151C67.4271 108.67 67.0491 108.348 67.0491 107.648V104.316H68.6171V103.028H67.0491V100.774H65.5791V101.908C65.5791 102.804 65.2011 103.028 64.6131 103.028H63.9971V104.316H65.3831V107.886C65.3831 109.216 66.1391 110 67.4551 110H68.6171ZM75.9345 105.45C75.9345 103.798 74.8705 102.888 72.9245 102.888C71.2305 102.888 70.0405 103.56 69.7605 105.016L71.3565 105.254C71.5105 104.47 72.0425 104.092 72.9105 104.092C73.6665 104.092 74.2685 104.428 74.2685 105.198C74.2685 105.506 74.0025 105.604 73.6665 105.688L72.3085 105.968C70.9925 106.234 69.6905 106.752 69.6905 108.25C69.6905 109.608 70.7825 110.14 71.9305 110.14C72.9105 110.14 73.8485 109.748 74.3245 108.936L74.3945 110H76.0325V109.846C75.9345 109.566 75.9345 109.146 75.9345 108.726V105.45ZM72.4065 108.978C71.7765 108.978 71.3565 108.67 71.3565 108.082C71.3565 107.41 71.8745 107.102 72.5745 106.976L74.3525 106.556C74.3525 108.138 73.4565 108.978 72.4065 108.978ZM81.6734 102.888C80.6514 102.888 79.7834 103.308 79.3634 104.036V99.5H77.6974V110H79.3634V109.006C79.7834 109.734 80.6514 110.14 81.6734 110.14C83.5494 110.14 85.0474 108.768 85.0474 106.528C85.0474 104.288 83.5494 102.888 81.6734 102.888ZM81.3374 108.754C80.1614 108.754 79.2934 107.9 79.2934 106.528C79.2934 105.156 80.1614 104.274 81.3374 104.274C82.5134 104.274 83.3814 105.156 83.3814 106.528C83.3814 107.9 82.5134 108.754 81.3374 108.754ZM88.1948 110V99.5H86.5428V110H88.1948ZM96.7495 106.472C96.7495 104.106 95.2655 102.888 93.2635 102.888C91.1215 102.888 89.6375 104.288 89.6375 106.514C89.6375 108.74 91.0935 110.14 93.3195 110.14C94.8735 110.14 96.1055 109.342 96.5815 107.97L95.0415 107.746C94.7335 108.446 94.1175 108.824 93.3055 108.824C92.2135 108.824 91.3735 108.096 91.2895 106.85H96.7355L96.7495 106.472ZM93.2775 104.134C94.2575 104.134 94.9995 104.778 95.0975 105.814H91.3175C91.4855 104.722 92.1995 104.134 93.2775 104.134ZM100.949 110.14C102.405 110.14 103.693 109.454 103.693 107.914C103.693 106.5 102.671 106.108 101.131 105.772C100.277 105.59 99.5489 105.408 99.5489 104.862C99.5489 104.372 100.011 104.092 100.683 104.092C101.397 104.092 101.901 104.386 102.097 105.016L103.567 104.694C103.245 103.448 102.069 102.888 100.739 102.888C99.1149 102.888 98.0369 103.686 98.0369 105.016C98.0369 106.332 99.0589 106.766 100.473 107.046C101.313 107.2 102.083 107.382 102.083 108.082C102.083 108.628 101.579 108.922 100.893 108.922C100.095 108.922 99.4649 108.572 99.2549 107.774L97.8549 108.166C98.1069 109.454 99.3669 110.14 100.949 110.14ZM116.219 108.18C117.059 107.144 117.563 105.786 117.563 104.246H116.065C116.065 105.324 115.757 106.262 115.267 106.99L113.209 104.414C114.497 103.756 115.211 103.098 115.211 102.062C115.211 100.886 114.287 99.99 112.621 99.99C111.221 99.99 110.129 100.788 110.129 102.104C110.129 102.762 110.451 103.392 110.843 103.882L111.053 104.148C109.555 105.072 108.519 105.87 108.519 107.382C108.519 109.104 109.891 110.182 111.991 110.182C113.167 110.182 114.245 109.818 115.141 109.202L115.785 110H117.675L116.219 108.18ZM112.705 101.11C113.265 101.11 113.671 101.474 113.671 101.978C113.671 102.524 113.293 102.944 112.425 103.448L112.229 103.196C111.949 102.846 111.697 102.426 111.697 102.02C111.697 101.488 112.089 101.11 112.705 101.11ZM112.145 108.768C110.927 108.768 110.199 108.236 110.199 107.228C110.199 106.22 110.913 105.758 111.879 105.156L114.231 108.082C113.615 108.516 112.887 108.768 112.145 108.768ZM128.637 100.172H122.939V110H124.675V105.842H128.133V104.33H124.675V101.698H128.637V100.172ZM131.248 103.028H129.596V110H131.248V106.78C131.248 105.072 132.032 104.442 133.726 104.442V102.888C132.564 102.888 131.668 103.378 131.248 104.148V103.028ZM139.701 106.892C139.687 108.25 138.917 108.796 137.993 108.796C137.125 108.796 136.523 108.348 136.523 107.34V103.028H134.857V107.676C134.857 109.23 135.753 110.14 137.475 110.14C138.441 110.14 139.211 109.762 139.701 109.146V110H141.353V103.028H139.701V106.892ZM144.011 101.754C144.543 101.754 145.005 101.306 145.005 100.746C145.005 100.2 144.543 99.752 144.011 99.752C143.451 99.752 142.989 100.2 142.989 100.746C142.989 101.306 143.451 101.754 144.011 101.754ZM144.837 110V103.028H143.171V110H144.837ZM150.648 110V108.67H150.046C149.458 108.67 149.08 108.348 149.08 107.648V104.316H150.648V103.028H149.08V100.774H147.61V101.908C147.61 102.804 147.232 103.028 146.644 103.028H146.028V104.316H147.414V107.886C147.414 109.216 148.17 110 149.486 110H150.648ZM154.775 110.14C156.231 110.14 157.519 109.454 157.519 107.914C157.519 106.5 156.497 106.108 154.957 105.772C154.103 105.59 153.375 105.408 153.375 104.862C153.375 104.372 153.837 104.092 154.509 104.092C155.223 104.092 155.727 104.386 155.923 105.016L157.393 104.694C157.071 103.448 155.895 102.888 154.565 102.888C152.941 102.888 151.863 103.686 151.863 105.016C151.863 106.332 152.885 106.766 154.299 107.046C155.139 107.2 155.909 107.382 155.909 108.082C155.909 108.628 155.405 108.922 154.719 108.922C153.921 108.922 153.291 108.572 153.081 107.774L151.681 108.166C151.933 109.454 153.193 110.14 154.775 110.14Z" fill="#2A2A2A"/>
<g clip-path="url(#clip0_202_127)">
<path d="M91.6144 61.1372H109.178C109.178 68.8529 104.508 75.5534 97.5028 79.0053C94.3556 80.6296 90.7008 81.4418 86.8429 81.4418C74.5586 81.4418 64.5078 72.4062 64.5078 61.1372H73.1372H82.0712C82.3758 61.7463 83.0864 62.1524 83.7971 62.1524C84.2032 62.1524 84.6093 62.0509 84.9139 61.8478C85.2185 62.6601 85.9291 63.1676 86.8428 63.1676C87.7565 63.1676 88.4671 62.5585 88.7717 61.8478C89.0763 62.0509 89.4823 62.1524 89.8885 62.1524C90.5991 62.1524 91.3098 61.7463 91.6144 61.1372Z" fill="#F2EDDA"/>
<path d="M86.8428 67.2286C86.8428 67.2286 87.858 68.7514 87.858 69.2591C87.858 69.7667 87.4519 70.2743 86.8428 70.2743C86.2336 70.2743 85.8276 69.7666 85.8276 69.2591C85.8276 68.7515 86.8428 67.2286 86.8428 67.2286ZM81.7666 66.2134C81.7666 66.2134 81.462 67.9393 81.056 68.3454C80.6499 68.7514 80.0408 68.7514 79.6346 68.3454C79.2286 67.9393 79.2286 67.3302 79.6346 66.924C80.0408 66.5179 81.7666 66.2134 81.7666 66.2134ZM94.0509 66.924C94.457 67.33 94.457 67.9392 94.0509 68.3454C93.6449 68.7514 93.0358 68.7514 92.6296 68.3454C92.2235 67.9393 91.919 66.2134 91.919 66.2134C91.919 66.2134 93.6448 66.5179 94.0509 66.924Z" fill="#AE938D"/>
<path d="M93.9488 27.6345C96.9945 30.6802 98.0097 38.8021 98.0097 38.8021C96.6899 38.4975 95.4716 38.2944 94.3549 38.1929C92.2229 37.5838 89.3803 36.2641 86.8421 33.7259C82.7812 29.665 82.7812 22.5583 82.7812 22.5583C82.7812 22.5583 88.8727 22.5583 93.9488 27.6345Z" fill="#50DD8E"/>
<path d="M94.3559 38.1929C96.4878 38.8021 98.0107 38.8021 98.0107 38.8021C98.0107 38.8021 101.056 37.7869 104.102 37.7869C113.239 37.7869 123.391 43.7768 123.391 57.0762C123.391 70.2741 115.371 81.4417 106.132 81.4417C102.275 81.4417 98.6197 80.1219 97.6045 79.1066L97.503 79.0051C104.407 75.5534 109.178 68.8529 109.178 61.137H91.6147C91.3102 61.7462 90.5995 62.1522 89.8888 62.1522C89.4828 62.1522 89.0766 62.0507 88.772 61.8477C88.4674 62.6599 87.7568 63.1674 86.8431 63.1674C85.9294 63.1674 85.2188 62.5583 84.9142 61.8477C84.6097 62.0507 84.2036 62.1522 83.7974 62.1522C83.0868 62.1522 82.3761 61.7462 82.0715 61.137H73.1375C72.833 59.5127 72.6299 57.0762 72.6299 57.0762C72.6299 45.604 79.3304 40.7309 87.3507 38.2944C89.1782 37.7867 91.3102 37.7867 94.3559 38.1929Z" fill="#FF7474"/>
<path d="M106.132 81.9493C105.523 81.9493 103.797 81.9493 101.969 81.6447C101.665 81.6447 101.462 81.3402 101.563 81.0356C101.563 80.731 101.868 80.5279 102.173 80.6295C103.898 80.9341 105.624 80.9341 106.132 80.9341C115.066 80.9341 122.883 69.7666 122.883 57.0763C122.883 44.1829 113.137 38.2945 104.101 38.2945C101.157 38.2945 98.2132 39.3097 98.2132 39.3097C98.1117 39.3097 98.1117 39.3097 98.0101 39.3097C97.7055 39.3097 91.6141 39.2082 86.4365 34.132C82.2741 29.9697 82.2741 22.863 82.2741 22.5584C82.2741 22.2539 82.4772 22.0508 82.7818 22.0508C83.0863 22.0508 89.1777 22.1523 94.3554 27.2284C96.1828 29.0559 97.2996 32.7107 97.9087 35.3503C99.4316 29.2589 104.609 26.2133 104.914 26.1118C105.117 26.0103 105.421 26.0103 105.624 26.3149C105.726 26.5179 105.726 26.8225 105.421 27.0255C105.32 27.0255 98.9239 30.7818 98.6193 38.0914C99.7361 37.7869 101.97 37.2792 104.203 37.2792C113.746 37.2792 124 43.4721 124 57.0762C123.899 70.5788 115.777 81.9493 106.132 81.9493ZM83.2893 23.0661C83.3908 24.792 83.9999 30.0712 87.1472 33.3199C91.1066 37.2793 95.7766 38.0915 97.4011 38.193C97.0965 36.264 95.9797 30.3757 93.5431 27.9392C89.5838 23.9798 84.9137 23.2692 83.2893 23.0661ZM86.8426 81.9493C74.2538 81.9493 64 72.6092 64 61.1372C64 60.8326 64.2031 60.6295 64.5077 60.6295H82.0711C82.2742 60.6295 82.3757 60.731 82.4772 60.8326C82.8832 61.5432 83.8986 61.8478 84.6092 61.3402C84.7107 61.2388 84.9137 61.2388 85.0152 61.2388C85.1167 61.2388 85.3198 61.4418 85.3198 61.5433C85.5229 62.1525 86.132 62.5585 86.7412 62.5585C87.3503 62.5585 87.9594 62.1525 88.1625 61.5433C88.264 61.4418 88.3656 61.2388 88.4671 61.2388C88.5686 61.2388 88.7717 61.2388 88.8731 61.3402C89.5838 61.8479 90.5991 61.5433 91.0051 60.8326C91.1066 60.6295 91.3097 60.6295 91.4112 60.6295H108.975C109.279 60.6295 109.482 60.8326 109.482 61.1372C109.685 72.6093 99.4314 81.9493 86.8426 81.9493ZM65.0152 61.6448C65.3198 72.3047 74.9645 80.9341 86.8426 80.9341C98.7208 80.9341 108.366 72.3047 108.67 61.6448H91.9188C91.2082 62.5585 89.9899 62.8631 88.9746 62.457C88.467 63.1676 87.7563 63.6753 86.8426 63.6753C85.9289 63.6753 85.1167 63.1676 84.7107 62.457C83.6955 62.8631 82.4772 62.457 81.7665 61.6448H65.0152ZM86.8426 70.7819C86.0304 70.7819 85.3198 70.0712 85.3198 69.259C85.3198 68.6499 86.132 67.4316 86.4366 66.924C86.6397 66.6194 87.0457 66.6194 87.2488 66.924C87.5534 67.4316 88.3656 68.5483 88.3656 69.259C88.3655 70.0711 87.6549 70.7819 86.8426 70.7819ZM86.8426 68.1422C86.5381 68.6499 86.335 69.0559 86.335 69.259C86.335 69.5636 86.5381 69.7667 86.8426 69.7667C87.1472 69.7667 87.3503 69.5636 87.3503 69.259C87.3503 69.0559 87.1472 68.6499 86.8426 68.1422ZM93.3401 69.1574C92.934 69.1574 92.5278 68.9543 92.2233 68.7514C91.7156 68.2437 91.5126 66.924 91.411 66.3148C91.411 66.1117 91.411 66.0103 91.5125 65.9088C91.614 65.8073 91.8171 65.7057 91.9186 65.8073C92.5277 65.9088 93.8475 66.2133 94.3551 66.6195C94.6597 66.9241 94.7612 67.3301 94.7612 67.7363C94.7612 68.1423 94.5581 68.5485 94.3551 68.8531C94.1523 69.0559 93.7462 69.1574 93.3401 69.1574ZM92.6294 66.924C92.7309 67.4316 92.934 67.9391 93.0355 68.0407C93.2386 68.2438 93.5431 68.2438 93.7461 68.0407C93.8476 67.9393 93.8476 67.8377 93.8476 67.6347C93.8476 67.4317 93.7461 67.3301 93.7461 67.2286C93.6446 67.2285 93.1371 67.0254 92.6294 66.924ZM80.3452 69.1574C79.9392 69.1574 79.533 69.0559 79.2284 68.7514C78.9239 68.4468 78.8224 68.0407 78.8224 67.6346C78.8224 67.2285 79.0255 66.8224 79.2284 66.5178C79.7361 66.0101 81.0558 65.8072 81.665 65.7056C81.8681 65.7056 81.9695 65.7056 82.071 65.807C82.1725 65.9085 82.2741 66.1116 82.1725 66.2131C82.071 66.8222 81.7665 68.142 81.3603 68.6496C81.1573 69.0559 80.7513 69.1574 80.3452 69.1574ZM81.0558 66.924C80.5482 67.0254 80.0406 67.2285 79.939 67.33C79.8376 67.4315 79.8376 67.5331 79.8376 67.7361C79.8376 67.8375 79.939 68.0406 79.939 68.1421C80.1421 68.3452 80.4467 68.3452 80.6497 68.1421C80.7513 67.9391 80.9544 67.4316 81.0558 66.924ZM72.6294 57.5838C72.3248 57.5838 72.1217 57.3807 72.1217 57.0762C72.1217 47.1269 77.0963 40.8325 87.2487 37.8883C87.5533 37.7869 87.7563 37.9898 87.8578 38.1929C87.9593 38.4975 87.7563 38.7006 87.5533 38.802C77.8071 41.6446 73.2385 47.5331 73.2385 57.0762C73.1371 57.3808 72.934 57.5838 72.6294 57.5838ZM118.822 53.5229C118.619 53.5229 118.416 53.3199 118.315 53.1169C117.502 49.7666 115.574 47.0255 112.934 45.1981C112.731 44.995 112.629 44.6905 112.832 44.4875C113.036 44.2845 113.34 44.1829 113.543 44.386C116.386 46.4165 118.416 49.3606 119.33 52.9139C119.431 53.2185 119.228 53.4216 118.924 53.5231C118.822 53.5229 118.822 53.5229 118.822 53.5229ZM109.178 43.2691H109.076L107.046 42.7614C106.741 42.66 106.64 42.4569 106.64 42.1523C106.741 41.8477 106.944 41.7463 107.249 41.7463C107.959 41.8477 108.67 42.0508 109.381 42.2539C109.685 42.3554 109.787 42.66 109.685 42.863C109.584 43.1676 109.381 43.2691 109.178 43.2691Z" fill="#51565F"/>
</g>
</g>
<defs>
<filter id="filter0_d_202_127" x="0" y="0" width="188" height="137" filterUnits="userSpaceOnUse" color-interpolation-filters="sRGB">
<feFlood flood-opacity="0" result="BackgroundImageFix"/>
<feColorMatrix in="SourceAlpha" type="matrix" values="0 0 0 0 0 0 0 0 0 0 0 0 0 0 0 0 0 0 127 0" result="hardAlpha"/>
<feOffset dy="1"/>
<feGaussianBlur stdDeviation="2.5"/>
<feColorMatrix type="matrix" values="0 0 0 0 0 0 0 0 0 0 0 0 0 0 0 0 0 0 0.06 0"/>
<feBlend mode="normal" in2="BackgroundImageFix" result="effect1_dropShadow_202_127"/>
<feBlend mode="normal" in="SourceGraphic" in2="effect1_dropShadow_202_127" result="shape"/>
</filter>
<clipPath id="clip0_202_127">
<rect width="60" height="60" fill="white" transform="translate(64 22)"/>
</clipPath>
</defs>
</svg>
