<svg width="188" height="137" viewBox="0 0 188 137" fill="none" xmlns="http://www.w3.org/2000/svg">
<g filter="url(#filter0_d_202_136)">
<rect x="5" y="4" width="178" height="127" fill="white"/>
<rect x="5.25" y="4.25" width="177.5" height="126.5" stroke="#2A2A2A" stroke-opacity="0.15" stroke-width="0.5"/>
<path d="M38.9623 110.182C40.6283 110.182 41.7483 109.426 42.3643 108.292V110H43.7223V104.722H39.1303V106.122H42.0283C41.7063 107.718 40.5583 108.586 39.0603 108.586C37.0583 108.586 35.7843 107.172 35.7843 105.086C35.7843 102.986 37.1423 101.586 39.0603 101.586C40.3063 101.586 41.3143 102.174 41.8603 103.182L43.3723 102.37C42.5463 100.886 40.9783 99.99 39.0603 99.99C36.1203 99.99 34.0623 102.062 34.0623 105.086C34.0623 108.11 36.0783 110.182 38.9623 110.182ZM47.0288 103.028H45.3768V110H47.0288V106.78C47.0288 105.072 47.8128 104.442 49.5068 104.442V102.888C48.3448 102.888 47.4488 103.378 47.0288 104.148V103.028ZM53.8787 110.14C56.0627 110.126 57.6167 108.74 57.6167 106.514C57.6167 104.302 56.0627 102.902 53.8787 102.888C51.6807 102.902 50.1267 104.302 50.1267 106.514C50.1267 108.74 51.6807 110.126 53.8787 110.14ZM53.8787 108.81C52.6327 108.81 51.7927 107.872 51.7927 106.514C51.7927 105.17 52.6327 104.218 53.8787 104.218C55.1107 104.218 55.9507 105.17 55.9507 106.514C55.9507 107.872 55.1107 108.81 53.8787 108.81ZM62.4634 110.14C64.1574 110.14 65.4734 109.216 65.8234 107.62L64.2974 107.466C64.0454 108.348 63.3734 108.824 62.4494 108.824C61.2314 108.824 60.4334 107.872 60.4334 106.514C60.4334 105.156 61.2314 104.204 62.4494 104.204C63.3734 104.204 64.0454 104.666 64.2974 105.562L65.8234 105.408C65.4734 103.812 64.1994 102.888 62.4634 102.888C60.2794 102.888 58.7674 104.372 58.7674 106.514C58.7674 108.656 60.2794 110.14 62.4634 110.14ZM74.0131 106.472C74.0131 104.106 72.5291 102.888 70.5271 102.888C68.3851 102.888 66.9011 104.288 66.9011 106.514C66.9011 108.74 68.3571 110.14 70.5831 110.14C72.1371 110.14 73.3691 109.342 73.8451 107.97L72.3051 107.746C71.9971 108.446 71.3811 108.824 70.5691 108.824C69.4771 108.824 68.6371 108.096 68.5531 106.85H73.9991L74.0131 106.472ZM70.5411 104.134C71.5211 104.134 72.2631 104.778 72.3611 105.814H68.5811C68.7491 104.722 69.4631 104.134 70.5411 104.134ZM77.1206 103.028H75.4686V110H77.1206V106.78C77.1206 105.072 77.9046 104.442 79.5986 104.442V102.888C78.4366 102.888 77.5406 103.378 77.1206 104.148V103.028ZM83.8523 108.026L81.9483 103.028H80.1423L82.9843 109.72L81.3743 113.402H83.1803L87.5623 103.028H85.7563L83.8523 108.026ZM99.731 108.18C100.571 107.144 101.075 105.786 101.075 104.246H99.577C99.577 105.324 99.269 106.262 98.779 106.99L96.721 104.414C98.009 103.756 98.723 103.098 98.723 102.062C98.723 100.886 97.799 99.99 96.133 99.99C94.733 99.99 93.641 100.788 93.641 102.104C93.641 102.762 93.963 103.392 94.355 103.882L94.565 104.148C93.067 105.072 92.031 105.87 92.031 107.382C92.031 109.104 93.403 110.182 95.503 110.182C96.679 110.182 97.757 109.818 98.653 109.202L99.297 110H101.187L99.731 108.18ZM96.217 101.11C96.777 101.11 97.183 101.474 97.183 101.978C97.183 102.524 96.805 102.944 95.937 103.448L95.741 103.196C95.461 102.846 95.209 102.426 95.209 102.02C95.209 101.488 95.601 101.11 96.217 101.11ZM95.657 108.768C94.439 108.768 93.711 108.236 93.711 107.228C93.711 106.22 94.425 105.758 95.391 105.156L97.743 108.082C97.127 108.516 96.399 108.768 95.657 108.768ZM109.769 110.182C111.967 110.182 113.395 109.02 113.395 107.228C113.395 105.114 111.533 104.61 109.993 104.218C108.831 103.924 107.823 103.672 107.823 102.762C107.823 101.936 108.537 101.418 109.601 101.418C110.735 101.418 111.393 101.88 111.743 102.93L113.311 102.566C112.863 100.718 111.267 99.99 109.503 99.99C107.473 99.99 106.073 101.124 106.073 102.86C106.073 104.82 107.823 105.324 109.307 105.73C110.525 106.066 111.589 106.346 111.589 107.354C111.589 108.222 110.931 108.754 109.783 108.754C108.593 108.754 107.753 108.194 107.459 106.976L105.751 107.34C106.059 109.16 107.683 110.182 109.769 110.182ZM118.82 110V108.67H118.218C117.63 108.67 117.252 108.348 117.252 107.648V104.316H118.82V103.028H117.252V100.774H115.782V101.908C115.782 102.804 115.404 103.028 114.816 103.028H114.2V104.316H115.586V107.886C115.586 109.216 116.342 110 117.658 110H118.82ZM126.138 105.45C126.138 103.798 125.074 102.888 123.128 102.888C121.434 102.888 120.244 103.56 119.964 105.016L121.56 105.254C121.714 104.47 122.246 104.092 123.114 104.092C123.87 104.092 124.472 104.428 124.472 105.198C124.472 105.506 124.206 105.604 123.87 105.688L122.512 105.968C121.196 106.234 119.894 106.752 119.894 108.25C119.894 109.608 120.986 110.14 122.134 110.14C123.114 110.14 124.052 109.748 124.528 108.936L124.598 110H126.236V109.846C126.138 109.566 126.138 109.146 126.138 108.726V105.45ZM122.61 108.978C121.98 108.978 121.56 108.67 121.56 108.082C121.56 107.41 122.078 107.102 122.778 106.976L124.556 106.556C124.556 108.138 123.66 108.978 122.61 108.978ZM131.863 102.888C130.841 102.888 129.959 103.294 129.539 104.022V103.028H127.887V113.402H129.539V108.992C129.959 109.72 130.841 110.14 131.863 110.14C133.739 110.14 135.237 108.74 135.237 106.5C135.237 104.26 133.739 102.888 131.863 102.888ZM131.513 108.754C130.337 108.754 129.469 107.872 129.469 106.5C129.469 105.128 130.337 104.274 131.513 104.274C132.689 104.274 133.571 105.128 133.571 106.5C133.571 107.872 132.689 108.754 131.513 108.754ZM138.398 110V99.5H136.746V110H138.398ZM146.953 106.472C146.953 104.106 145.469 102.888 143.467 102.888C141.325 102.888 139.841 104.288 139.841 106.514C139.841 108.74 141.297 110.14 143.523 110.14C145.077 110.14 146.309 109.342 146.785 107.97L145.245 107.746C144.937 108.446 144.321 108.824 143.509 108.824C142.417 108.824 141.577 108.096 141.493 106.85H146.939L146.953 106.472ZM143.481 104.134C144.461 104.134 145.203 104.778 145.301 105.814H141.521C141.689 104.722 142.403 104.134 143.481 104.134ZM151.152 110.14C152.608 110.14 153.896 109.454 153.896 107.914C153.896 106.5 152.874 106.108 151.334 105.772C150.48 105.59 149.752 105.408 149.752 104.862C149.752 104.372 150.214 104.092 150.886 104.092C151.6 104.092 152.104 104.386 152.3 105.016L153.77 104.694C153.448 103.448 152.272 102.888 150.942 102.888C149.318 102.888 148.24 103.686 148.24 105.016C148.24 106.332 149.262 106.766 150.676 107.046C151.516 107.2 152.286 107.382 152.286 108.082C152.286 108.628 151.782 108.922 151.096 108.922C150.298 108.922 149.668 108.572 149.458 107.774L148.058 108.166C148.31 109.454 149.57 110.14 151.152 110.14Z" fill="#2A2A2A"/>
<g clip-path="url(#clip0_202_136)">
<path d="M72.6434 29.6015L72.8469 30.6184H72.6434H66.5417C66.5417 30.6184 64.5078 30.6184 64.5078 28.5845C64.5078 26.5505 66.5417 26.5505 66.5417 26.5505H69.5926C71.6265 26.5507 72.6434 29.6015 72.6434 29.6015Z" fill="#50DD8E"/>
<path d="M112.304 75.3643C114.033 75.3643 115.355 76.6863 115.355 78.4151C115.355 80.144 114.033 81.466 112.304 81.466C110.576 81.466 109.254 80.144 109.254 78.4151C109.254 76.6863 110.576 75.3643 112.304 75.3643ZM81.796 75.3643C83.5248 75.3643 84.8468 76.6863 84.8468 78.4151C84.8468 80.144 83.5248 81.466 81.796 81.466C80.0671 81.466 78.7451 80.144 78.7451 78.4151C78.7451 76.6863 80.0672 75.3643 81.796 75.3643Z" fill="#AE938D"/>
<path d="M74.1689 38.7542H123.491C123.491 38.7542 119.423 61.127 118.406 64.1778C117.389 67.2287 114.338 67.2287 114.338 67.2287H82.8131C79.7622 67.2287 78.7453 65.1947 78.7453 65.1947L74.1689 38.7542Z" fill="#ECF4F7"/>
<path d="M121.355 31.6353V38.7539H111.186V30.6184H120.338C120.948 30.6184 121.355 31.1269 121.355 31.6353Z" fill="#50DD8E"/>
<path d="M111.186 30.6185V38.7542H107.118V26.5508H110.169C110.779 26.5508 111.186 27.0593 111.186 27.5677V30.6185ZM107.118 26.5508V38.7542H92.8809V27.5677C92.8809 27.0592 93.2876 26.5508 93.8978 26.5508H107.118Z" fill="#FF7474"/>
<path d="M84.2363 31.0252C84.7448 33.1608 84.7448 34.6862 84.7448 34.6862C84.7448 34.6862 84.7448 36.7202 84.3381 38.754H88.6093C88.9144 36.9235 88.9144 34.6862 88.9144 34.6862C88.9144 34.6862 88.9144 26.5506 80.7787 23.4998C82.7109 26.0422 83.7279 28.8896 84.2363 31.0252C83.7278 28.8896 82.7109 26.0422 80.677 23.4998C80.677 23.4998 81.0837 26.6523 81.0837 30.0082C81.0837 31.6353 80.9821 33.3641 80.677 34.6861C80.677 34.6861 80.3719 36.9234 79.7617 38.7539H84.338C84.7447 36.7199 84.7447 34.6861 84.7447 34.6861C84.7447 34.6861 84.7448 33.1608 84.2363 31.0252Z" fill="#FFE079"/>
<path d="M112.305 81.9746C110.373 81.9746 108.746 80.3475 108.746 78.4153C108.746 76.483 110.373 74.8559 112.305 74.8559C114.237 74.8559 115.864 76.483 115.864 78.4153C115.864 80.3475 114.237 81.9746 112.305 81.9746ZM112.305 75.8729C110.881 75.8729 109.763 76.9916 109.763 78.4153C109.763 79.8389 110.881 80.9576 112.305 80.9576C113.729 80.9576 114.847 79.8389 114.847 78.4153C114.847 76.9916 113.729 75.8729 112.305 75.8729ZM81.7966 81.9746C79.8644 81.9746 78.2372 80.3475 78.2372 78.4153C78.2372 76.483 79.8643 74.8559 81.7966 74.8559C83.7288 74.8559 85.3559 76.483 85.3559 78.4153C85.3559 80.3475 83.7288 81.9746 81.7966 81.9746ZM81.7966 75.8729C80.3728 75.8729 79.2542 76.9916 79.2542 78.4153C79.2542 79.8389 80.3729 80.9576 81.7966 80.9576C83.2203 80.9576 84.3389 79.8389 84.3389 78.4153C84.3389 76.9916 83.2203 75.8729 81.7966 75.8729ZM84.8474 73.8391C84.7457 73.8391 84.644 73.8391 84.644 73.7374C84.4405 73.6358 84.3389 73.3307 84.4405 73.0256C84.644 72.6189 85.6609 70.6866 86.8812 70.6866H115.356C115.661 70.6866 115.864 70.89 115.864 71.1951C115.864 71.5002 115.661 71.7036 115.356 71.7036H86.8813C86.4746 71.7036 85.661 72.7205 85.2543 73.4325C85.2543 73.7373 85.0508 73.8391 84.8474 73.8391ZM114.339 67.7374H82.8136C79.4577 67.7374 78.339 65.5002 78.339 65.3984V65.2967L72.2373 29.7035C72.0339 28.9917 71.0169 27.0594 69.695 27.0594H66.6441C66.4407 27.0594 65.1187 27.1611 65.1187 28.5848C65.1187 30.0086 66.4407 30.1102 66.6441 30.1102H68.678C68.9831 30.1102 69.1866 30.3137 69.1866 30.6188C69.1866 30.9238 68.9831 31.1273 68.678 31.1273H66.6441C65.7289 31.1273 64.1018 30.6188 64.1018 28.5849C64.1018 26.5511 65.7289 26.0425 66.6441 26.0425H69.695C72.034 26.0425 73.1525 29.2968 73.2543 29.3984L79.356 64.9917C79.5594 65.2967 80.4747 66.7205 82.9154 66.7205H114.441C114.542 66.7205 117.186 66.7205 118 63.9747C118.915 61.229 122.271 42.8223 122.983 39.2629H77.7288C77.4237 39.2629 77.2203 39.0595 77.2203 38.7544C77.2203 38.4493 77.4237 38.2459 77.7288 38.2459H123.491C123.593 38.2459 123.797 38.3475 123.898 38.4493C124 38.551 124 38.7544 124 38.856C123.796 39.7713 119.932 61.3306 118.915 64.3815C118 67.0255 115.559 67.7374 114.339 67.7374ZM109.254 63.6695C108.949 63.6695 108.746 63.4661 108.746 63.161C108.746 63.161 108.746 63.161 108.746 63.0594L109.254 57.4662H99.5931V63.0594C99.5931 63.3645 99.3897 63.5679 99.0846 63.5679C98.7795 63.5679 98.5761 63.3645 98.5761 63.0594V57.4662H88.915L89.4236 63.0594C89.4236 63.0594 89.4236 63.0594 89.4236 63.161C89.4236 63.4661 89.2201 63.6695 88.915 63.6695C88.61 63.6695 88.4065 63.4661 88.4065 63.2628L87.7964 57.6696H80.7796C80.4746 57.6696 80.2711 57.4662 80.2711 57.1611C80.2711 56.856 80.4746 56.6526 80.7796 56.6526H87.6949L86.9831 49.534H79.4577C79.1526 49.534 78.9491 49.3306 78.9491 49.0255C78.9491 48.7204 79.1526 48.517 79.4577 48.517H86.8813L86.3728 42.9238C86.3728 42.9238 86.3728 42.9238 86.3728 42.8221C86.3728 42.5171 86.5763 42.3136 86.8813 42.3136C87.1864 42.3136 87.3899 42.5171 87.3899 42.7204L88 48.3135H98.5763V42.822C98.5763 42.5169 98.7798 42.3135 99.0848 42.3135C99.3899 42.3135 99.5934 42.5169 99.5934 42.822V48.4152H110.17L110.78 42.822C110.78 42.5169 111.085 42.3135 111.288 42.4153C111.593 42.4153 111.797 42.6187 111.797 42.9238C111.797 42.9238 111.797 42.9238 111.797 43.0254L111.288 48.6187H117.39C117.695 48.6187 117.898 48.8222 117.898 49.1273C117.898 49.4323 117.695 49.6358 117.39 49.6358H111.186L110.475 56.7544H115.864C116.169 56.7544 116.373 56.9578 116.373 57.2629C116.373 57.568 116.169 57.7714 115.864 57.7714H110.373L109.763 63.3646C109.763 63.4662 109.559 63.6695 109.254 63.6695ZM99.5932 56.5509H109.356L110.068 49.4323H99.5932V56.5509ZM88.8135 56.5509H98.5762V49.4323H88.1017L88.8135 56.5509ZM73.661 63.6695H66.5423C66.2372 63.6695 66.0338 63.4661 66.0338 63.161C66.0338 62.8559 66.2372 62.6525 66.5423 62.6525H73.6609C73.966 62.6525 74.1694 62.8559 74.1694 63.161C74.1694 63.4662 73.9661 63.6695 73.661 63.6695ZM72.1356 57.5679H68.5763C68.2712 57.5679 68.0678 57.3644 68.0678 57.0593C68.0678 56.7543 68.2712 56.5508 68.5763 56.5508H72.1356C72.4407 56.5508 72.6441 56.7543 72.6441 57.0593C72.6441 57.3644 72.4407 57.5679 72.1356 57.5679ZM70.6102 51.4662H64.5085C64.2034 51.4662 64 51.2627 64 50.9576C64 50.6526 64.2034 50.4491 64.5085 50.4491H70.6102C70.9153 50.4491 71.1187 50.6526 71.1187 50.9576C71.1186 51.2628 70.9153 51.4662 70.6102 51.4662ZM80.7796 35.195H80.678C80.3729 35.0934 80.2713 34.8899 80.2713 34.5849C81.1865 31.0255 80.3729 24.8221 80.2713 23.8052L79.356 22.89C79.1526 22.6866 79.1526 22.3815 79.356 22.1782C79.5594 21.9749 79.8645 21.9747 80.0678 22.1782L80.9831 23.0934C89.2204 26.2459 89.322 34.585 89.322 34.6866C89.322 34.9917 89.1186 35.1951 88.8135 35.1951C88.5084 35.1951 88.305 34.9917 88.305 34.6866C88.305 34.3815 88.2033 27.9748 82.2033 24.7205C85.2541 29.5002 85.2541 34.4832 85.2541 34.6866C85.2541 34.9917 85.0507 35.1951 84.7456 35.1951C84.4405 35.1951 84.2371 34.9917 84.2371 34.6866C84.2371 34.585 84.2371 29.9069 81.3897 25.4324C81.5931 27.8731 81.8982 32.0426 81.1863 34.7884C81.1864 34.9916 80.9831 35.195 80.7796 35.195ZM121.458 35.195C121.152 35.195 120.949 34.9916 120.949 34.6865V31.6357C120.949 31.3306 120.746 31.1271 120.441 31.1271H115.356C115.051 31.1271 114.847 30.9237 114.847 30.6186C114.847 30.3136 115.051 30.1101 115.356 30.1101H120.441C121.254 30.1101 121.966 30.8219 121.966 31.6355V34.6864C121.966 34.9916 121.763 35.195 121.458 35.195ZM111.288 35.195C110.983 35.195 110.78 34.9916 110.78 34.6865V27.5679C110.78 27.2628 110.576 27.0594 110.271 27.0594H107.729V34.6865C107.729 34.9916 107.525 35.195 107.22 35.195C106.915 35.195 106.712 34.9916 106.712 34.6865V27.0594H93.9999C93.6949 27.0594 93.4914 27.2628 93.4914 27.5679V34.6865C93.4914 34.9916 93.288 35.195 92.9829 35.195C92.6778 35.195 92.4744 34.9916 92.4744 34.6865V27.5679C92.4744 26.7543 93.1862 26.0425 93.9998 26.0425H110.271C111.085 26.0425 111.796 26.7543 111.796 27.5679V34.6865C111.797 34.9916 111.593 35.195 111.288 35.195Z" fill="#51565F"/>
</g>
</g>
<defs>
<filter id="filter0_d_202_136" x="0" y="0" width="188" height="137" filterUnits="userSpaceOnUse" color-interpolation-filters="sRGB">
<feFlood flood-opacity="0" result="BackgroundImageFix"/>
<feColorMatrix in="SourceAlpha" type="matrix" values="0 0 0 0 0 0 0 0 0 0 0 0 0 0 0 0 0 0 127 0" result="hardAlpha"/>
<feOffset dy="1"/>
<feGaussianBlur stdDeviation="2.5"/>
<feColorMatrix type="matrix" values="0 0 0 0 0 0 0 0 0 0 0 0 0 0 0 0 0 0 0.06 0"/>
<feBlend mode="normal" in2="BackgroundImageFix" result="effect1_dropShadow_202_136"/>
<feBlend mode="normal" in="SourceGraphic" in2="effect1_dropShadow_202_136" result="shape"/>
</filter>
<clipPath id="clip0_202_136">
<rect width="60" height="60" fill="white" transform="translate(64 22)"/>
</clipPath>
</defs>
</svg>
