<svg width="188" height="137" viewBox="0 0 188 137" fill="none" xmlns="http://www.w3.org/2000/svg">
<g filter="url(#filter0_d_202_147)">
<rect x="5" y="4" width="178" height="127" fill="white"/>
<rect x="5.25" y="4.25" width="177.5" height="126.5" stroke="#2A2A2A" stroke-opacity="0.15" stroke-width="0.5"/>
<path d="M56.1976 110C57.8776 110 59.0116 109.678 59.8376 109.062C60.9576 108.236 61.5176 106.864 61.5176 105.086C61.5176 103.308 60.9576 101.936 59.8376 101.11C59.0116 100.494 57.8776 100.172 56.1976 100.172H53.3836V110H56.1976ZM55.1196 101.698H56.1976C57.2616 101.698 58.0596 101.922 58.6336 102.342C59.4036 102.902 59.7816 103.84 59.7816 105.086C59.7816 106.332 59.4036 107.27 58.6336 107.83C58.0596 108.25 57.2616 108.474 56.1976 108.474H55.1196V101.698ZM68.914 105.45C68.914 103.798 67.85 102.888 65.904 102.888C64.21 102.888 63.02 103.56 62.74 105.016L64.336 105.254C64.49 104.47 65.022 104.092 65.89 104.092C66.646 104.092 67.248 104.428 67.248 105.198C67.248 105.506 66.982 105.604 66.646 105.688L65.288 105.968C63.972 106.234 62.67 106.752 62.67 108.25C62.67 109.608 63.762 110.14 64.91 110.14C65.89 110.14 66.828 109.748 67.304 108.936L67.374 110H69.012V109.846C68.914 109.566 68.914 109.146 68.914 108.726V105.45ZM65.386 108.978C64.756 108.978 64.336 108.67 64.336 108.082C64.336 107.41 64.854 107.102 65.554 106.976L67.332 106.556C67.332 108.138 66.436 108.978 65.386 108.978ZM71.4889 101.754C72.0209 101.754 72.4829 101.306 72.4829 100.746C72.4829 100.2 72.0209 99.752 71.4889 99.752C70.9289 99.752 70.4669 100.2 70.4669 100.746C70.4669 101.306 70.9289 101.754 71.4889 101.754ZM72.3149 110V103.028H70.6489V110H72.3149ZM75.7739 103.028H74.1219V110H75.7739V106.78C75.7739 105.072 76.5579 104.442 78.2519 104.442V102.888C77.0899 102.888 76.1939 103.378 75.7739 104.148V103.028ZM82.5056 108.026L80.6016 103.028H78.7956L81.6376 109.72L80.0276 113.402H81.8336L86.2156 103.028H84.4096L82.5056 108.026ZM98.3844 108.18C99.2244 107.144 99.7284 105.786 99.7284 104.246H98.2304C98.2304 105.324 97.9224 106.262 97.4324 106.99L95.3744 104.414C96.6624 103.756 97.3764 103.098 97.3764 102.062C97.3764 100.886 96.4524 99.99 94.7864 99.99C93.3864 99.99 92.2944 100.788 92.2944 102.104C92.2944 102.762 92.6164 103.392 93.0084 103.882L93.2184 104.148C91.7204 105.072 90.6844 105.87 90.6844 107.382C90.6844 109.104 92.0564 110.182 94.1564 110.182C95.3324 110.182 96.4104 109.818 97.3064 109.202L97.9504 110H99.8404L98.3844 108.18ZM94.8704 101.11C95.4304 101.11 95.8364 101.474 95.8364 101.978C95.8364 102.524 95.4584 102.944 94.5904 103.448L94.3944 103.196C94.1144 102.846 93.8624 102.426 93.8624 102.02C93.8624 101.488 94.2544 101.11 94.8704 101.11ZM94.3104 108.768C93.0924 108.768 92.3644 108.236 92.3644 107.228C92.3644 106.22 93.0784 105.758 94.0444 105.156L96.3964 108.082C95.7804 108.516 95.0524 108.768 94.3104 108.768ZM110.718 100.172H105.104V110H110.718V108.474H106.84V105.842H110.298V104.33H106.84V101.698H110.718V100.172ZM117.365 104.064C116.959 103.364 116.133 102.888 115.069 102.888C113.277 102.888 111.835 104.26 111.835 106.374C111.835 108.488 113.277 109.874 115.055 109.874C116.091 109.874 116.959 109.412 117.365 108.74V109.986C117.365 111.344 116.749 112.212 115.391 112.212C114.397 112.212 113.739 111.694 113.333 110.756L111.947 111.33C112.437 112.632 113.529 113.5 115.461 113.5C117.645 113.5 119.031 112.38 119.031 109.874V103.028H117.365V104.064ZM115.447 108.53C114.299 108.53 113.445 107.62 113.445 106.374C113.445 105.128 114.285 104.218 115.447 104.218C116.623 104.218 117.463 105.128 117.463 106.374C117.463 107.62 116.609 108.53 115.447 108.53ZM126.033 104.064C125.627 103.364 124.801 102.888 123.737 102.888C121.945 102.888 120.503 104.26 120.503 106.374C120.503 108.488 121.945 109.874 123.723 109.874C124.759 109.874 125.627 109.412 126.033 108.74V109.986C126.033 111.344 125.417 112.212 124.059 112.212C123.065 112.212 122.407 111.694 122.001 110.756L120.615 111.33C121.105 112.632 122.197 113.5 124.129 113.5C126.313 113.5 127.699 112.38 127.699 109.874V103.028H126.033V104.064ZM124.115 108.53C122.967 108.53 122.113 107.62 122.113 106.374C122.113 105.128 122.953 104.218 124.115 104.218C125.291 104.218 126.131 105.128 126.131 106.374C126.131 107.62 125.277 108.53 124.115 108.53ZM132.251 110.14C133.707 110.14 134.995 109.454 134.995 107.914C134.995 106.5 133.973 106.108 132.433 105.772C131.579 105.59 130.851 105.408 130.851 104.862C130.851 104.372 131.313 104.092 131.985 104.092C132.699 104.092 133.203 104.386 133.399 105.016L134.869 104.694C134.547 103.448 133.371 102.888 132.041 102.888C130.417 102.888 129.339 103.686 129.339 105.016C129.339 106.332 130.361 106.766 131.775 107.046C132.615 107.2 133.385 107.382 133.385 108.082C133.385 108.628 132.881 108.922 132.195 108.922C131.397 108.922 130.767 108.572 130.557 107.774L129.157 108.166C129.409 109.454 130.669 110.14 132.251 110.14Z" fill="#2A2A2A"/>
<g clip-path="url(#clip0_202_147)">
<path d="M104.102 81.4417H90.9037V73.3199C88.8732 74.335 86.8428 74.335 86.8428 74.335C86.8428 74.335 79.7362 74.335 76.6906 67.2285C74.6601 62.4569 64.5078 66.2133 64.5078 66.2133V38.8021H90.9038H105.117V50.9849H101.056L101.767 59.1067H101.665L103.087 79.4113C103.087 80.2236 103.493 80.8327 104.203 81.2388L104.102 81.4417ZM90.9037 38.8021H64.5078L72.6297 26.6194H96.9952L105.117 37.7869V38.8021H90.9037Z" fill="#ECF4F7"/>
<path d="M72.6299 26.6193H96.9954V22.5583H72.6299V26.6193Z" fill="#AAB1BA"/>
<path d="M123.391 50.9849L122.782 59.1066H122.375H101.766L101.056 50.9849H105.117H123.391Z" fill="#ECF4F7"/>
<path d="M122.782 59.1067L121.361 79.4113C121.361 80.5281 120.447 81.4418 119.33 81.4418H105.117C104.812 81.4418 104.406 81.3403 104.203 81.2387C103.594 80.9341 103.086 80.2235 103.086 79.4113L101.665 59.1067H101.767H122.376H122.782Z" fill="#80D6FA"/>
<path d="M90.9037 73.3198V81.4417H64.5078V66.2133C64.5078 66.2133 74.6601 62.457 76.6906 67.2285C79.7362 74.335 86.8428 74.335 86.8428 74.335C86.8428 74.335 88.8733 74.335 90.9037 73.3198Z" fill="#80D6FA"/>
<path d="M119.33 81.9493H105.117C103.695 81.9493 102.579 80.8325 102.579 79.4113L101.157 59.1067C101.157 59.0052 101.157 58.8021 101.259 58.7006C101.36 58.5991 101.462 58.4975 101.665 58.4975H118.315C118.619 58.4975 118.822 58.7006 118.822 59.0052C118.822 59.3097 118.619 59.5128 118.315 59.5128H102.274L103.594 79.3098C103.594 80.2235 104.305 80.8326 105.117 80.8326H119.33C120.142 80.8326 120.853 80.122 120.853 79.3098L122.883 51.391H101.665L101.97 54.9443C101.97 55.2489 101.766 55.452 101.462 55.452C101.259 55.452 100.954 55.2489 100.954 54.9443L100.65 50.8834C100.65 50.7819 100.65 50.5789 100.751 50.4774C100.853 50.3759 100.954 50.2743 101.157 50.2743H123.492C123.594 50.2743 123.797 50.3758 123.898 50.4774C124 50.5789 124 50.6805 124 50.8834L121.969 79.3098C121.868 80.8326 120.751 81.9493 119.33 81.9493ZM99.0254 81.9493H64.5077C64.2031 81.9493 64 81.7462 64 81.4416V66.2132V38.802C64 38.7006 64 38.7006 64 38.599C64 38.599 64 38.4975 64.1015 38.4975L72.1219 26.4163V22.5584C72.1219 22.2539 72.325 22.0508 72.6295 22.0508H96.995C97.2996 22.0508 97.5027 22.2539 97.5027 22.5584V26.4163L105.523 37.4823C105.624 37.5838 105.624 37.6854 105.624 37.7869V46.9239C105.624 47.2285 105.421 47.4316 105.117 47.4316C104.812 47.4316 104.609 47.2285 104.609 46.9239V37.9899L96.6903 27.127H76.6904C76.3858 27.127 76.1827 26.9239 76.1827 26.6193C76.1827 26.3147 76.3858 26.1117 76.6904 26.1117H96.4873V23.0661H73.1371V26.6194C73.1371 26.7209 73.1371 26.8225 73.0356 26.924L65.4214 38.2945H90.5991L94.5585 30.4772C94.6599 30.2741 94.9645 30.1726 95.2691 30.2741C95.4722 30.3756 95.5736 30.6802 95.4722 30.9848L91.8173 38.3959H101.157C101.462 38.3959 101.665 38.599 101.665 38.9035C101.665 39.2081 101.462 39.4112 101.157 39.4112H91.0052H65.1167V65.6041C67.5532 64.7919 75.3705 62.6599 77.2994 67.1269C80.142 73.8274 86.9441 73.9289 86.9441 73.9289C87.2487 73.9289 87.4518 74.132 87.4518 74.4366C87.4518 74.7411 87.2487 74.9442 86.9441 74.9442C86.8426 74.9442 79.4314 74.8427 76.2842 67.5331C74.6599 63.6752 66.8426 66.1117 65.1167 66.7209V81.0356H90.4975V42.863C90.4975 42.5585 90.7005 42.3554 91.0051 42.3554C91.3097 42.3554 91.5128 42.5585 91.5128 42.863V80.9341H99.127C99.4315 80.9341 99.6346 81.1372 99.6346 81.4418C99.6345 81.7463 99.3299 81.9493 99.0254 81.9493ZM80.7513 57.5838H72.6294C72.3248 57.5838 72.1217 57.3807 72.1217 57.0762C72.1217 56.7716 72.3248 56.5685 72.6294 56.5685H80.7513C81.0558 56.5685 81.2589 56.7716 81.2589 57.0762C81.2589 57.3808 81.0558 57.5838 80.7513 57.5838ZM82.7818 53.5229H72.6294C72.3248 53.5229 72.1217 53.3199 72.1217 53.0153C72.1217 52.7107 72.3248 52.5076 72.6294 52.5076H82.7816C83.0862 52.5076 83.2893 52.7107 83.2893 53.0153C83.2893 53.3199 83.0863 53.5229 82.7818 53.5229ZM78.7208 49.4621H72.6294C72.3248 49.4621 72.1217 49.259 72.1217 48.9544C72.1217 48.6498 72.3248 48.4468 72.6294 48.4468H78.7208C79.0253 48.4468 79.2284 48.6498 79.2284 48.9544C79.2284 49.259 79.0253 49.4621 78.7208 49.4621Z" fill="#51565F"/>
</g>
</g>
<defs>
<filter id="filter0_d_202_147" x="0" y="0" width="188" height="137" filterUnits="userSpaceOnUse" color-interpolation-filters="sRGB">
<feFlood flood-opacity="0" result="BackgroundImageFix"/>
<feColorMatrix in="SourceAlpha" type="matrix" values="0 0 0 0 0 0 0 0 0 0 0 0 0 0 0 0 0 0 127 0" result="hardAlpha"/>
<feOffset dy="1"/>
<feGaussianBlur stdDeviation="2.5"/>
<feColorMatrix type="matrix" values="0 0 0 0 0 0 0 0 0 0 0 0 0 0 0 0 0 0 0.06 0"/>
<feBlend mode="normal" in2="BackgroundImageFix" result="effect1_dropShadow_202_147"/>
<feBlend mode="normal" in="SourceGraphic" in2="effect1_dropShadow_202_147" result="shape"/>
</filter>
<clipPath id="clip0_202_147">
<rect width="60" height="60" fill="white" transform="translate(64 22)"/>
</clipPath>
</defs>
</svg>
