<svg width="188" height="137" viewBox="0 0 188 137" fill="none" xmlns="http://www.w3.org/2000/svg">
<g filter="url(#filter0_d_202_158)">
<rect x="5" y="4" width="178" height="127" fill="white"/>
<rect x="5.25" y="4.25" width="177.5" height="126.5" stroke="#2A2A2A" stroke-opacity="0.15" stroke-width="0.5"/>
<path d="M65.6874 104.778C66.5134 104.428 66.9474 103.7 66.9474 102.678C66.9474 101.026 65.8274 100.172 63.6854 100.172H60.4794V110H64.1614C65.3794 110 67.5634 109.664 67.5634 107.27C67.5634 105.884 66.8634 105.114 65.6874 104.778ZM65.2254 102.958C65.2254 103.868 64.7074 104.302 63.6574 104.302H62.2154V101.614H63.6574C64.6934 101.614 65.2254 102.062 65.2254 102.958ZM62.2154 108.516V105.632H64.1754C65.2954 105.632 65.8274 106.108 65.8274 107.074C65.8274 108.054 65.2954 108.516 64.1754 108.516H62.2154ZM75.7973 106.472C75.7973 104.106 74.3133 102.888 72.3113 102.888C70.1693 102.888 68.6853 104.288 68.6853 106.514C68.6853 108.74 70.1413 110.14 72.3673 110.14C73.9213 110.14 75.1533 109.342 75.6293 107.97L74.0893 107.746C73.7813 108.446 73.1653 108.824 72.3533 108.824C71.2613 108.824 70.4213 108.096 70.3373 106.85H75.7833L75.7973 106.472ZM72.3253 104.134C73.3053 104.134 74.0473 104.778 74.1453 105.814H70.3653C70.5333 104.722 71.2473 104.134 72.3253 104.134ZM80.031 108.04L78.127 103.028H76.321L79.289 110H80.787L83.741 103.028H81.935L80.031 108.04ZM91.3286 106.472C91.3286 104.106 89.8446 102.888 87.8426 102.888C85.7006 102.888 84.2166 104.288 84.2166 106.514C84.2166 108.74 85.6726 110.14 87.8986 110.14C89.4526 110.14 90.6846 109.342 91.1606 107.97L89.6206 107.746C89.3126 108.446 88.6966 108.824 87.8846 108.824C86.7926 108.824 85.9526 108.096 85.8686 106.85H91.3146L91.3286 106.472ZM87.8566 104.134C88.8366 104.134 89.5786 104.778 89.6766 105.814H85.8966C86.0646 104.722 86.7786 104.134 87.8566 104.134ZM94.436 103.028H92.784V110H94.436V106.78C94.436 105.072 95.22 104.442 96.914 104.442V102.888C95.752 102.888 94.856 103.378 94.436 104.148V103.028ZM103.873 105.45C103.873 103.798 102.809 102.888 100.863 102.888C99.169 102.888 97.979 103.56 97.699 105.016L99.295 105.254C99.449 104.47 99.981 104.092 100.849 104.092C101.605 104.092 102.207 104.428 102.207 105.198C102.207 105.506 101.941 105.604 101.605 105.688L100.247 105.968C98.931 106.234 97.629 106.752 97.629 108.25C97.629 109.608 98.721 110.14 99.869 110.14C100.849 110.14 101.787 109.748 102.263 108.936L102.333 110H103.971V109.846C103.873 109.566 103.873 109.146 103.873 108.726V105.45ZM100.345 108.978C99.715 108.978 99.295 108.67 99.295 108.082C99.295 107.41 99.813 107.102 100.513 106.976L102.291 106.556C102.291 108.138 101.395 108.978 100.345 108.978ZM110.748 104.064C110.342 103.364 109.516 102.888 108.452 102.888C106.66 102.888 105.218 104.26 105.218 106.374C105.218 108.488 106.66 109.874 108.438 109.874C109.474 109.874 110.342 109.412 110.748 108.74V109.986C110.748 111.344 110.132 112.212 108.774 112.212C107.78 112.212 107.122 111.694 106.716 110.756L105.33 111.33C105.82 112.632 106.912 113.5 108.844 113.5C111.028 113.5 112.414 112.38 112.414 109.874V103.028H110.748V104.064ZM108.83 108.53C107.682 108.53 106.828 107.62 106.828 106.374C106.828 105.128 107.668 104.218 108.83 104.218C110.006 104.218 110.846 105.128 110.846 106.374C110.846 107.62 109.992 108.53 108.83 108.53ZM120.956 106.472C120.956 104.106 119.472 102.888 117.47 102.888C115.328 102.888 113.844 104.288 113.844 106.514C113.844 108.74 115.3 110.14 117.526 110.14C119.08 110.14 120.312 109.342 120.788 107.97L119.248 107.746C118.94 108.446 118.324 108.824 117.512 108.824C116.42 108.824 115.58 108.096 115.496 106.85H120.942L120.956 106.472ZM117.484 104.134C118.464 104.134 119.206 104.778 119.304 105.814H115.524C115.692 104.722 116.406 104.134 117.484 104.134ZM125.155 110.14C126.611 110.14 127.899 109.454 127.899 107.914C127.899 106.5 126.877 106.108 125.337 105.772C124.483 105.59 123.755 105.408 123.755 104.862C123.755 104.372 124.217 104.092 124.889 104.092C125.603 104.092 126.107 104.386 126.303 105.016L127.773 104.694C127.451 103.448 126.275 102.888 124.945 102.888C123.321 102.888 122.243 103.686 122.243 105.016C122.243 106.332 123.265 106.766 124.679 107.046C125.519 107.2 126.289 107.382 126.289 108.082C126.289 108.628 125.785 108.922 125.099 108.922C124.301 108.922 123.671 108.572 123.461 107.774L122.061 108.166C122.313 109.454 123.573 110.14 125.155 110.14Z" fill="#2A2A2A"/>
<g clip-path="url(#clip0_202_158)">
<path d="M123.492 73.3558V77.4235C123.492 79.6608 121.661 81.4913 119.424 81.4913H118.407C117.288 81.4913 116.373 80.4744 115.356 79.4573C114.339 80.4742 113.424 81.4913 112.305 81.4913H110.271C109.153 81.4913 108.237 80.4744 107.221 79.4573C106.204 80.4742 105.288 81.4913 104.17 81.4913H103.153C100.916 81.4913 99.0851 79.6608 99.0851 77.4235V73.3558C99.0851 71.3218 100.102 71.3218 100.102 69.288H122.475C122.475 71.3219 123.492 71.3219 123.492 73.3558ZM123.492 40.8135V48.9491C123.492 50.9831 122.475 50.9831 122.475 53.0169H100.102C100.102 50.9829 99.085 50.9829 99.085 48.9491V40.8135C99.085 37.7626 101.119 35.7287 103.153 34.7118L107.221 32.6779V28.6101H109.255H113.322H115.356V32.6779L119.424 34.7118C121.458 35.7287 123.492 37.7626 123.492 40.8135Z" fill="#ECF4F7"/>
<path d="M100.102 69.2881H122.474V53.017H100.102V69.2881ZM113.322 28.6102H109.254H107.22H106.203C105.593 28.6102 105.186 28.1017 105.186 27.5933V23.5255C105.186 23.0169 105.593 22.5085 106.203 22.5085H116.373C116.983 22.5085 117.39 23.0171 117.39 23.5255V27.5932C117.39 28.1017 116.983 28.6101 116.373 28.6101H115.356H113.322V28.6102Z" fill="#50DD8E"/>
<path d="M70.1022 40.2036L70.6108 40.8137L72.6446 38.7798L74.17 40.3052L74.2716 40.2036C74.6784 38.2714 74.5767 35.729 74.5767 35.729V35.6273C74.5767 34.712 74.0682 27.39 66.4411 24.5426C68.4752 27.0849 69.4921 29.9323 70.0006 32.0679C69.4921 29.9323 68.4752 27.0849 66.4412 24.5425C66.4412 24.5425 66.848 27.695 66.848 31.0509C66.848 32.678 66.7463 34.4068 66.4412 35.7288C66.4412 35.7288 66.0345 37.4577 65.1192 39.2882L65.0176 39.3898L66.4413 40.8136L68.4752 38.7798L70.1022 40.2036Z" fill="#FFE079"/>
<path d="M97.0511 38.7798L99.085 40.8137V48.9493C99.085 50.9833 100.102 50.9833 100.102 53.0171V69.2882H64.5088V38.7798L65.119 39.39L66.5427 40.8137L68.5765 38.7798L70.102 40.3052L70.6105 40.8137L72.6443 38.7798L74.1697 40.3052L74.6782 40.8137L76.7122 38.7798L77.7291 39.7967L78.746 40.8136L80.7799 38.7798L82.8139 40.8137L84.8478 38.7798L86.8816 40.8137L88.9156 38.7798L90.9495 40.8137L92.9833 38.7798L95.0172 40.8137L97.0511 38.7798ZM103.153 81.4916H68.5765C66.3393 81.4916 64.5088 79.6611 64.5088 77.4239V69.2882H100.102C100.102 71.3222 99.0851 71.3222 99.0851 73.356V77.4237C99.085 79.6611 100.916 81.4916 103.153 81.4916Z" fill="#FFD0A1"/>
<path d="M78.7454 40.8137L77.7285 39.7968L78.7454 38.7799V27.5933C78.7454 27.0848 79.2539 26.5764 79.7623 26.5764H92.9828V38.7798L90.9488 40.8137L88.915 38.7798L86.8811 40.8137L84.8471 38.7798L82.8132 40.8137L80.7794 38.7798L78.7454 40.8137ZM97.0505 27.5933V38.7798L95.0166 40.8137L92.9828 38.7798V26.5764H96.0336C96.6438 26.5764 97.0505 27.0849 97.0505 27.5933Z" fill="#FF7474"/>
<path d="M119.424 82H118.407C117.187 82 116.271 81.0847 115.356 80.1695C114.441 81.0847 113.525 82 112.305 82H110.271C109.051 82 108.136 81.0847 107.22 80.1695C106.305 81.0847 105.39 82 104.17 82H103.153C100.61 82 98.5763 79.9661 98.5763 77.4237V73.356C98.5763 72.2373 98.8814 71.6271 99.1865 71.1187C99.3899 70.6102 99.5933 70.2035 99.5933 69.2882V53.017C99.5933 52.1017 99.3898 51.695 99.1865 51.1865C98.8814 50.6779 98.5763 50.0678 98.5763 48.9492V40.8136C98.5763 38.0678 100.203 35.6271 102.949 34.3052L106.712 32.3729V28.6102C106.712 28.9153 106.508 29.1187 106.203 29.1187C105.39 29.1187 104.678 28.4069 104.678 27.5933V23.5254C104.678 22.7118 105.39 22 106.203 22H116.373C117.186 22 117.898 22.7118 117.898 23.5254V27.5932C117.898 28.4068 117.186 29.1186 116.373 29.1186C116.068 29.1186 115.864 28.9152 115.864 28.6101C115.864 28.305 116.068 28.1016 116.373 28.1016C116.678 28.1016 116.881 27.8981 116.881 27.5931V23.5254C116.881 23.2203 116.678 23.0169 116.373 23.0169H106.203C105.898 23.0169 105.695 23.2203 105.695 23.5254V27.5932C105.695 27.8983 105.898 28.1017 106.203 28.1017C106.508 28.1017 106.712 28.3051 106.712 28.6102C106.712 28.3051 106.915 28.1017 107.22 28.1017H108.746V26.5763C108.746 26.2712 108.949 26.0678 109.254 26.0678C109.559 26.0678 109.763 26.2712 109.763 26.5763V28.1017H112.814V26.5763C112.814 26.2712 113.017 26.0678 113.322 26.0678C113.627 26.0678 113.831 26.2712 113.831 26.5763V28.1017H115.356C115.661 28.1017 115.865 28.3051 115.865 28.6102V32.3729L119.627 34.305C122.373 35.627 124 38.0677 124 40.8135V48.9491C124 50.0678 123.695 50.6779 123.39 51.1863C123.187 51.6949 122.983 52.1016 122.983 53.0168V69.2881C122.983 70.2034 123.187 70.6101 123.39 71.1186C123.695 71.6271 124 72.2373 124 73.3559V77.4236C124 79.9661 121.966 82 119.424 82ZM115.356 78.9492C115.458 78.9492 115.661 78.9492 115.763 79.0508L115.966 79.2542C116.881 80.1695 117.593 80.8813 118.407 80.8813H119.424C121.356 80.8813 122.983 79.2542 122.983 77.322V73.2542C122.983 72.3389 122.78 71.9322 122.576 71.4237C122.373 71.017 122.068 70.5084 122.068 69.6948H104.17C103.864 69.6948 103.661 69.4914 103.661 69.1863C103.661 68.8812 103.864 68.6778 104.17 68.6778H121.966V53.017C121.966 51.8983 122.271 51.2881 122.576 50.7797C122.78 50.2712 122.983 49.8645 122.983 48.9492V40.8136C122.983 37.4577 120.339 35.7288 119.22 35.1186L115.153 33.0847C114.949 32.983 114.847 32.7796 114.847 32.678V29.1186H107.729V32.678C107.729 32.8814 107.627 33.0847 107.424 33.0847L103.356 35.1186C102.237 35.7288 99.5933 37.3559 99.5933 40.8136V48.9492C99.5933 49.8645 99.7967 50.2712 100 50.7797C100.203 51.1865 100.509 51.695 100.509 52.5086H118.305C118.61 52.5086 118.814 52.712 118.814 53.0171C118.814 53.3222 118.61 53.5256 118.305 53.5256H100.509V69.2881C100.509 70.4068 100.203 71.017 99.8983 71.5253C99.6949 72.0339 99.4916 72.4406 99.4916 73.3559V77.4236C99.4916 79.3558 101.119 80.983 103.051 80.983H104.068C104.881 80.983 105.593 80.2711 106.509 79.3559L106.712 79.1525C106.915 78.949 107.22 78.949 107.424 79.1525L107.627 79.3559C108.542 80.2711 109.254 80.983 110.068 80.983H112.102C112.915 80.983 113.627 80.2711 114.543 79.3559L114.746 79.1525C115.051 78.9492 115.254 78.9492 115.356 78.9492ZM96.0339 82H68.5763C66.0339 82 64 79.9661 64 77.4237V38.7796C64 38.5762 64.1017 38.3729 64.3051 38.2711C64.5085 38.1695 64.7118 38.2711 64.8136 38.3728L66.4407 40L68.0678 38.3729C68.2712 38.1695 68.5763 38.1695 68.7796 38.3729L70.4068 40L72.0339 38.3729C72.2373 38.1695 72.5424 38.1695 72.7457 38.3729L74.3729 40L76 38.3729C76.2034 38.1695 76.5085 38.1695 76.7118 38.3729L78.3389 40L79.9659 38.3729C80.1694 38.1695 80.4745 38.1695 80.6778 38.3729L82.3048 40L83.9319 38.3729C84.1354 38.1695 84.4404 38.1695 84.6437 38.3729L86.2708 40L87.8979 38.3729C88.1013 38.1695 88.4064 38.1695 88.6097 38.3729L90.2368 40L91.8639 38.3729C92.0673 38.1695 92.3724 38.1695 92.5757 38.3729L94.6096 40.4068C94.8131 40.6103 94.8131 40.9154 94.6096 41.1187C94.4062 41.322 94.1011 41.3221 93.8978 41.1187L92.2707 39.4916L90.6437 41.1187C90.4402 41.3221 90.1352 41.3221 89.9318 41.1187L88.3048 39.4916L86.6777 41.1187C86.4743 41.3221 86.1692 41.3221 85.9659 41.1187L84.3388 39.4916L82.7117 41.1187C82.5083 41.3221 82.2032 41.3221 81.9999 41.1187L80.3728 39.4916L78.7457 41.1187C78.5423 41.3221 78.2372 41.3221 78.0339 41.1187L76.4068 39.4916L74.7797 41.1187C74.5763 41.3221 74.2712 41.3221 74.0679 41.1187L72.4408 39.4916L70.8138 41.1187C70.6103 41.3221 70.3052 41.3221 70.1019 41.1187L68.4749 39.4916L66.8478 41.1187C66.6443 41.3221 66.3393 41.3221 66.136 41.1187L65.0173 40V68.7796H96.0339C96.339 68.7796 96.5424 68.983 96.5424 69.2881C96.5424 69.5932 96.339 69.7966 96.0339 69.7966H65.0169V77.4237C65.0169 79.3559 66.644 80.9831 68.5763 80.9831H96.0339C96.339 80.9831 96.5424 81.1865 96.5424 81.4916C96.5423 81.7966 96.339 82 96.0339 82ZM116.373 63.6949H106.203C105.898 63.6949 105.695 63.4915 105.695 63.1864C105.695 62.8813 105.898 62.6779 106.203 62.6779H116.373C116.678 62.6779 116.881 62.8813 116.881 63.1864C116.881 63.4915 116.678 63.6949 116.373 63.6949ZM114.339 59.6271H106.203C105.898 59.6271 105.695 59.4236 105.695 59.1185C105.695 58.8135 105.898 58.61 106.203 58.61H114.339C114.644 58.61 114.847 58.8135 114.847 59.1185C114.847 59.4237 114.644 59.6271 114.339 59.6271ZM92.983 36.2373C92.678 36.2373 92.4745 36.0339 92.4745 35.7288V27.0848H79.7627C79.4577 27.0848 79.2542 27.2882 79.2542 27.5933V35.7288C79.2542 36.0339 79.0508 36.2373 78.7457 36.2373C78.4406 36.2373 78.2372 36.0339 78.2372 35.7288V27.5932C78.2372 26.7796 78.949 26.0678 79.7626 26.0678H96.0339C96.8475 26.0678 97.5593 26.7796 97.5593 27.5932V34.7118C97.5593 35.0169 97.3559 35.2203 97.0508 35.2203C96.7457 35.2203 96.5423 35.0169 96.5423 34.7118V27.5932C96.5423 27.2881 96.3389 27.0847 96.0338 27.0847H93.4914V35.7288C93.4916 36.0339 93.2881 36.2373 92.983 36.2373ZM66.5423 36.2373H66.4407C66.1356 36.1357 66.0339 35.9322 66.0339 35.6271C66.9492 32.0678 66.1356 25.8644 66.0339 24.8475L65.1187 23.9323C64.9153 23.7289 64.9153 23.4238 65.1187 23.2205C65.3221 23.0171 65.6272 23.017 65.8305 23.2205L66.7458 24.1357C74.983 27.2882 75.0847 35.6273 75.0847 35.7289C75.0847 36.034 74.8813 36.2374 74.5762 36.2374C74.2711 36.2374 74.0677 36.034 74.0677 35.7289C74.0677 35.4238 73.966 29.0171 67.966 25.7628C71.0168 30.5425 71.0168 35.5255 71.0168 35.7289C71.0168 36.034 70.8134 36.2374 70.5083 36.2374C70.2032 36.2374 69.9998 36.034 69.9998 35.7289C69.9998 35.6273 69.9998 30.9492 67.1524 26.4747C67.3558 28.9154 67.6609 33.0849 66.949 35.8307C66.9492 36.0339 66.7458 36.2373 66.5423 36.2373Z" fill="#51565F"/>
</g>
</g>
<defs>
<filter id="filter0_d_202_158" x="0" y="0" width="188" height="137" filterUnits="userSpaceOnUse" color-interpolation-filters="sRGB">
<feFlood flood-opacity="0" result="BackgroundImageFix"/>
<feColorMatrix in="SourceAlpha" type="matrix" values="0 0 0 0 0 0 0 0 0 0 0 0 0 0 0 0 0 0 127 0" result="hardAlpha"/>
<feOffset dy="1"/>
<feGaussianBlur stdDeviation="2.5"/>
<feColorMatrix type="matrix" values="0 0 0 0 0 0 0 0 0 0 0 0 0 0 0 0 0 0 0.06 0"/>
<feBlend mode="normal" in2="BackgroundImageFix" result="effect1_dropShadow_202_158"/>
<feBlend mode="normal" in="SourceGraphic" in2="effect1_dropShadow_202_158" result="shape"/>
</filter>
<clipPath id="clip0_202_158">
<rect width="60" height="60" fill="white" transform="translate(64 22)"/>
</clipPath>
</defs>
</svg>
