<svg width="188" height="137" viewBox="0 0 188 137" fill="none" xmlns="http://www.w3.org/2000/svg">
<g filter="url(#filter0_d_202_168)">
<rect x="5" y="4" width="178" height="127" fill="white"/>
<rect x="5.25" y="4.25" width="177.5" height="126.5" stroke="#2A2A2A" stroke-opacity="0.15" stroke-width="0.5"/>
<path d="M74.7212 110.182C76.9192 110.182 78.3472 109.02 78.3472 107.228C78.3472 105.114 76.4852 104.61 74.9452 104.218C73.7832 103.924 72.7752 103.672 72.7752 102.762C72.7752 101.936 73.4892 101.418 74.5532 101.418C75.6872 101.418 76.3452 101.88 76.6952 102.93L78.2632 102.566C77.8152 100.718 76.2192 99.99 74.4552 99.99C72.4252 99.99 71.0252 101.124 71.0252 102.86C71.0252 104.82 72.7752 105.324 74.2592 105.73C75.4772 106.066 76.5412 106.346 76.5412 107.354C76.5412 108.222 75.8832 108.754 74.7352 108.754C73.5452 108.754 72.7052 108.194 72.4112 106.976L70.7032 107.34C71.0112 109.16 72.6352 110.182 74.7212 110.182ZM83.7281 102.888C82.7761 102.888 82.0201 103.252 81.5301 103.868V103.028H79.8641V110H81.5301V105.856C81.6421 104.708 82.3701 104.218 83.2241 104.218C84.0781 104.218 84.6941 104.694 84.6941 105.702V110H86.3461V105.366C86.3461 103.812 85.4501 102.888 83.7281 102.888ZM93.9882 105.45C93.9882 103.798 92.9242 102.888 90.9782 102.888C89.2842 102.888 88.0942 103.56 87.8142 105.016L89.4102 105.254C89.5642 104.47 90.0962 104.092 90.9642 104.092C91.7202 104.092 92.3222 104.428 92.3222 105.198C92.3222 105.506 92.0562 105.604 91.7202 105.688L90.3622 105.968C89.0462 106.234 87.7442 106.752 87.7442 108.25C87.7442 109.608 88.8362 110.14 89.9842 110.14C90.9642 110.14 91.9022 109.748 92.3782 108.936L92.4482 110H94.0862V109.846C93.9882 109.566 93.9882 109.146 93.9882 108.726V105.45ZM90.4602 108.978C89.8302 108.978 89.4102 108.67 89.4102 108.082C89.4102 107.41 89.9282 107.102 90.6282 106.976L92.4062 106.556C92.4062 108.138 91.5102 108.978 90.4602 108.978ZM99.0288 110.14C100.723 110.14 102.039 109.216 102.389 107.62L100.863 107.466C100.611 108.348 99.9388 108.824 99.0148 108.824C97.7968 108.824 96.9988 107.872 96.9988 106.514C96.9988 105.156 97.7968 104.204 99.0148 104.204C99.9388 104.204 100.611 104.666 100.863 105.562L102.389 105.408C102.039 103.812 100.765 102.888 99.0288 102.888C96.8448 102.888 95.3328 104.372 95.3328 106.514C95.3328 108.656 96.8448 110.14 99.0288 110.14ZM110.327 103.028H108.437L105.917 105.828H105.497V99.5H103.845V110H105.497V106.976H105.931L108.535 110H110.551L107.317 106.304L110.327 103.028ZM114.231 110.14C115.687 110.14 116.975 109.454 116.975 107.914C116.975 106.5 115.953 106.108 114.413 105.772C113.559 105.59 112.831 105.408 112.831 104.862C112.831 104.372 113.293 104.092 113.965 104.092C114.679 104.092 115.183 104.386 115.379 105.016L116.849 104.694C116.527 103.448 115.351 102.888 114.021 102.888C112.397 102.888 111.319 103.686 111.319 105.016C111.319 106.332 112.341 106.766 113.755 107.046C114.595 107.2 115.365 107.382 115.365 108.082C115.365 108.628 114.861 108.922 114.175 108.922C113.377 108.922 112.747 108.572 112.537 107.774L111.137 108.166C111.389 109.454 112.649 110.14 114.231 110.14Z" fill="#2A2A2A"/>
<path d="M68.5752 63.1696H119.423V68.2543H68.5752V63.1696ZM68.5752 53H119.423V57.0678H68.5752V53Z" fill="#FF7474"/>
<path d="M88.9142 52.9999L84.8464 57.0676L82.8125 59.1016L80.7786 57.0678L76.7108 53H88.9142V52.9999ZM68.5752 48.9321H119.423V52.9999H68.5752V48.9321Z" fill="#FFE079"/>
<path d="M123.491 59.1016V61.1355C123.491 62.2542 122.576 63.1694 121.457 63.1694H66.5417C65.4231 63.1694 64.5078 62.2542 64.5078 61.1355V59.1016C64.5078 57.9829 65.4231 57.0676 66.5417 57.0676H80.7791L82.813 59.1016L84.8469 57.0676H121.457C122.576 57.0677 123.491 57.983 123.491 59.1016Z" fill="#AE938D"/>
<path d="M121.457 75.3729V77.4068C121.457 79.644 119.626 81.4745 117.389 81.4745H70.6095C68.3722 81.4745 66.5417 79.644 66.5417 77.4068V75.3729C66.5417 74.2542 67.457 73.3389 68.5757 73.3389H119.423C120.542 73.3389 121.457 74.2542 121.457 75.3729ZM93.9992 24.5254C123.491 24.5254 121.457 46.8982 121.457 46.8982C121.457 48.1186 120.643 48.9322 119.423 48.9322H68.5755C67.3552 48.9322 66.5416 48.1186 66.5416 46.8982C66.5416 46.8982 64.5078 24.5254 93.9992 24.5254Z" fill="#F2EDDA"/>
<path d="M119.423 68.2542H68.5752V73.3389H119.423V68.2542Z" fill="#50DD8E"/>
<path d="M117.39 81.983H70.6102C68.0679 81.983 66.0339 79.9491 66.0339 77.4068V75.3728C66.0339 73.9491 67.1526 72.8305 68.5763 72.8305H119.424C120.847 72.8305 121.966 73.9492 121.966 75.3728V77.4068C121.966 79.9492 119.932 81.983 117.39 81.983ZM68.5763 73.8475C67.7627 73.8475 67.0508 74.5594 67.0508 75.373V77.4069C67.0508 79.3391 68.6779 80.9662 70.6102 80.9662H117.39C119.322 80.9662 120.949 79.3392 120.949 77.4069V75.373C120.949 74.5594 120.237 73.8475 119.424 73.8475H68.5763ZM116.373 69.7797C115.153 69.7797 114.542 69.1695 113.932 68.661C113.424 68.1525 113.017 67.7457 112.305 67.7457C111.593 67.7457 111.085 68.1525 110.678 68.661C110.17 69.1695 109.559 69.7797 108.237 69.7797C106.915 69.7797 106.407 69.1695 105.797 68.661C105.288 68.1525 104.881 67.7457 104.17 67.7457C103.458 67.7457 102.949 68.1525 102.543 68.661C102.034 69.1695 101.424 69.7797 100.102 69.7797C98.7799 69.7797 98.2714 69.1695 97.6612 68.661C97.1527 68.1525 96.7459 67.7457 96.0341 67.7457C95.3223 67.7457 94.8138 68.1525 94.407 68.661C93.8985 69.1695 93.2884 69.7797 91.9664 69.7797C90.6444 69.7797 90.1359 69.1695 89.5257 68.661C89.0172 68.1525 88.6104 67.7457 87.8986 67.7457C87.1868 67.7457 86.6783 68.1525 86.2715 68.661C85.763 69.1695 85.1528 69.7797 83.8309 69.7797C82.5089 69.7797 82.0003 69.1695 81.3902 68.661C80.8817 68.1525 80.4749 67.7457 79.7631 67.7457C79.0513 67.7457 78.5428 68.1525 78.136 68.661C77.6275 69.1695 77.0173 69.7797 75.6953 69.7797C74.3734 69.7797 73.8648 69.1695 73.2547 68.661C72.7462 68.1525 72.3394 67.7457 71.6276 67.7457C69.7971 67.7457 67.9666 69.5762 67.9666 69.6779C67.7631 69.8813 67.4581 69.8813 67.2548 69.6779C67.0513 69.4744 67.0513 69.1694 67.2548 68.9661C67.3564 68.8644 69.492 66.8305 71.7294 66.8305C72.9497 66.8305 73.5599 67.4406 74.17 67.9491C74.6786 68.4577 75.0853 68.8644 75.7971 68.8644C76.5089 68.8644 77.0175 68.4577 77.4242 67.9491C77.9327 67.4406 78.5429 66.8305 79.8649 66.8305C81.1869 66.8305 81.6954 67.4406 82.3055 67.9491C82.8141 68.4577 83.2208 68.8644 83.9326 68.8644C84.6445 68.8644 85.153 68.4577 85.5597 67.9491C86.0682 67.4406 86.6784 66.8305 88.0004 66.8305C89.3224 66.8305 89.8309 67.4406 90.4411 67.9491C90.9496 68.4577 91.3563 68.8644 92.0681 68.8644C92.78 68.8644 93.2885 68.4577 93.6952 67.9491C94.2037 67.4406 94.8139 66.8305 96.1359 66.8305C97.4579 66.8305 97.9664 67.4406 98.5766 67.9491C99.0851 68.4577 99.4918 68.8644 100.204 68.8644C100.915 68.8644 101.424 68.4577 101.831 67.9491C102.339 67.4406 102.949 66.8305 104.271 66.8305C105.593 66.8305 106.102 67.4406 106.712 67.9491C107.221 68.4577 107.627 68.8644 108.339 68.8644C109.051 68.8644 109.559 68.4577 109.966 67.9491C110.475 67.4406 111.085 66.8305 112.407 66.8305C113.729 66.8305 114.237 67.4406 114.848 67.9491C115.356 68.4577 115.763 68.8644 116.475 68.8644C118.305 68.8644 120.136 67.0339 120.136 66.9322C120.339 66.7288 120.644 66.7288 120.847 66.9322C121.051 67.1357 121.051 67.4408 120.847 67.6441C120.746 67.6441 118.61 69.7797 116.373 69.7797ZM121.458 63.678H66.5423C65.1187 63.678 64 62.5594 64 61.1356V59.1017C64 57.678 65.1187 56.5594 66.5423 56.5594H75.6949C76 56.5594 76.2034 56.7628 76.2034 57.0679C76.2034 57.373 76 57.5764 75.6949 57.5764H66.5423C65.7287 57.5764 65.0169 58.2882 65.0169 59.1018V61.1356C65.0169 61.9492 65.7287 62.6611 66.5423 62.6611H121.458C122.271 62.6611 122.983 61.9492 122.983 61.1356V59.1017C122.983 58.2881 122.271 57.5763 121.458 57.5763H89.9322C89.6271 57.5763 89.4237 57.3728 89.4237 57.0678C89.4237 56.7627 89.6271 56.5592 89.9322 56.5592H121.458C122.881 56.5592 124 57.6779 124 59.1016V61.1356C124 62.5594 122.881 63.678 121.458 63.678ZM82.8136 59.6102C82.7119 59.6102 82.5085 59.6102 82.4068 59.5086L76.4068 53.5085H68.4746C68.1695 53.5085 67.9661 53.3051 67.9661 53C67.9661 52.6949 68.1695 52.4915 68.4746 52.4915H76.6102C76.7119 52.4915 76.9153 52.5931 77.017 52.5931L82.7119 58.2881L88.4068 52.5933C88.5084 52.4916 88.6102 52.4916 88.8135 52.4916H119.322C119.627 52.4916 119.83 52.695 119.83 53.0001C119.83 53.3052 119.627 53.5086 119.322 53.5086H89.0169L83.0169 59.5087C83.1187 59.6102 82.9152 59.6102 82.8136 59.6102ZM119.424 49.4408H68.5763C67.0508 49.4408 66.0339 48.4239 66.0339 46.8984C66.0339 46.5933 65.3221 38.4577 71.322 31.9493C76.1017 26.6612 83.7288 24.0171 93.9999 24.0171C104.271 24.0171 111.898 26.6611 116.678 31.9492C122.576 38.3559 122.068 46.3898 121.966 46.8983C121.966 48.4237 120.949 49.4408 119.424 49.4408ZM93.9999 25.034C84.0338 25.034 76.7118 27.5763 72.0339 32.6611C66.339 38.8645 66.9492 46.7967 67.0508 46.8983C67.0508 47.9152 67.661 48.4237 68.5763 48.4237H119.424C120.339 48.4237 120.949 47.8136 120.949 46.8983C120.949 46.7967 121.559 38.8645 115.864 32.661C111.288 27.5763 103.966 25.034 93.9999 25.034ZM98.5762 35.2034C97.966 35.2034 97.5593 34.7967 97.5593 34.1865C97.5593 33.5764 97.966 33.1696 98.5762 33.1696C99.1864 33.1696 99.5931 33.5764 99.5931 34.1865C99.5932 34.7967 99.1864 35.2034 98.5762 35.2034ZM110.78 34.1865C110.169 34.1865 109.763 33.7798 109.763 33.1696C109.763 32.5595 110.169 32.1527 110.78 32.1527C111.39 32.1527 111.796 32.5595 111.796 33.1696C111.797 33.7797 111.39 34.1865 110.78 34.1865ZM103.661 33.1695C103.051 33.1695 102.644 32.7628 102.644 32.1526C102.644 31.5424 103.051 31.1357 103.661 31.1357C104.271 31.1357 104.678 31.5424 104.678 32.1526C104.678 32.7628 104.271 33.1695 103.661 33.1695ZM92.4745 31.1357C91.8643 31.1357 91.4576 30.729 91.4576 30.1188C91.4576 29.5086 91.8643 29.1019 92.4745 29.1019C93.0847 29.1019 93.4914 29.5086 93.4914 30.1188C93.4914 30.729 93.0847 31.1357 92.4745 31.1357ZM99.5932 29.1018C98.9831 29.1018 98.5763 28.695 98.5763 28.0848C98.5763 27.4747 98.9831 27.0679 99.5932 27.0679C100.203 27.0679 100.61 27.4747 100.61 28.0848C100.61 28.695 100.203 29.1018 99.5932 29.1018Z" fill="#51565F"/>
</g>
<defs>
<filter id="filter0_d_202_168" x="0" y="0" width="188" height="137" filterUnits="userSpaceOnUse" color-interpolation-filters="sRGB">
<feFlood flood-opacity="0" result="BackgroundImageFix"/>
<feColorMatrix in="SourceAlpha" type="matrix" values="0 0 0 0 0 0 0 0 0 0 0 0 0 0 0 0 0 0 127 0" result="hardAlpha"/>
<feOffset dy="1"/>
<feGaussianBlur stdDeviation="2.5"/>
<feColorMatrix type="matrix" values="0 0 0 0 0 0 0 0 0 0 0 0 0 0 0 0 0 0 0.06 0"/>
<feBlend mode="normal" in2="BackgroundImageFix" result="effect1_dropShadow_202_168"/>
<feBlend mode="normal" in="SourceGraphic" in2="effect1_dropShadow_202_168" result="shape"/>
</filter>
</defs>
</svg>
