<svg width="188" height="137" viewBox="0 0 188 137" fill="none" xmlns="http://www.w3.org/2000/svg">
<g filter="url(#filter0_d_202_178)">
<rect x="5" y="4" width="178" height="127" fill="white"/>
<rect x="5.25" y="4.25" width="177.5" height="126.5" stroke="#2A2A2A" stroke-opacity="0.15" stroke-width="0.5"/>
<path d="M59.6177 110V105.828H64.2377V110H65.9737V100.172H64.2377V104.316H59.6177V100.172H57.8817V110H59.6177ZM71.2899 110.14C73.4739 110.126 75.0279 108.74 75.0279 106.514C75.0279 104.302 73.4739 102.902 71.2899 102.888C69.0919 102.902 67.5379 104.302 67.5379 106.514C67.5379 108.74 69.0919 110.126 71.2899 110.14ZM71.2899 108.81C70.0439 108.81 69.2039 107.872 69.2039 106.514C69.2039 105.17 70.0439 104.218 71.2899 104.218C72.5219 104.218 73.3619 105.17 73.3619 106.514C73.3619 107.872 72.5219 108.81 71.2899 108.81ZM84.5925 102.888C83.6125 102.888 82.8425 103.336 82.3945 104.106C82.0725 103.336 81.3025 102.888 80.1965 102.888C79.3285 102.888 78.6285 103.238 78.1805 103.854V103.028H76.5145V110H78.1805V105.716C78.2785 104.638 78.8945 104.218 79.6225 104.218C80.3645 104.218 80.9105 104.68 80.9105 105.52V110H82.5625V106.038C82.5625 104.722 83.2205 104.218 84.0185 104.218C84.7605 104.218 85.2925 104.666 85.2925 105.52V110H86.9585V104.988C86.9585 103.686 86.0625 102.888 84.5925 102.888ZM95.4438 106.472C95.4438 104.106 93.9598 102.888 91.9578 102.888C89.8158 102.888 88.3318 104.288 88.3318 106.514C88.3318 108.74 89.7878 110.14 92.0138 110.14C93.5678 110.14 94.7998 109.342 95.2758 107.97L93.7358 107.746C93.4278 108.446 92.8118 108.824 91.9998 108.824C90.9078 108.824 90.0678 108.096 89.9838 106.85H95.4298L95.4438 106.472ZM91.9718 104.134C92.9518 104.134 93.6938 104.778 93.7918 105.814H90.0118C90.1798 104.722 90.8938 104.134 91.9718 104.134ZM105.198 110.182C107.354 110.182 109.062 109.034 109.776 107.228L108.152 106.64C107.676 107.844 106.584 108.586 105.198 108.586C103.28 108.586 101.922 107.186 101.922 105.086C101.922 102.986 103.28 101.586 105.198 101.586C106.584 101.586 107.676 102.328 108.152 103.532L109.776 102.944C109.062 101.138 107.354 99.99 105.198 99.99C102.258 99.99 100.2 102.062 100.2 105.086C100.2 108.11 102.258 110.182 105.198 110.182ZM116.998 105.45C116.998 103.798 115.934 102.888 113.988 102.888C112.294 102.888 111.104 103.56 110.824 105.016L112.42 105.254C112.574 104.47 113.106 104.092 113.974 104.092C114.73 104.092 115.332 104.428 115.332 105.198C115.332 105.506 115.066 105.604 114.73 105.688L113.372 105.968C112.056 106.234 110.754 106.752 110.754 108.25C110.754 109.608 111.846 110.14 112.994 110.14C113.974 110.14 114.912 109.748 115.388 108.936L115.458 110H117.096V109.846C116.998 109.566 116.998 109.146 116.998 108.726V105.45ZM113.47 108.978C112.84 108.978 112.42 108.67 112.42 108.082C112.42 107.41 112.938 107.102 113.638 106.976L115.416 106.556C115.416 108.138 114.52 108.978 113.47 108.978ZM120.399 103.028H118.747V110H120.399V106.78C120.399 105.072 121.183 104.442 122.877 104.442V102.888C121.715 102.888 120.819 103.378 120.399 104.148V103.028ZM130.567 106.472C130.567 104.106 129.083 102.888 127.081 102.888C124.939 102.888 123.455 104.288 123.455 106.514C123.455 108.74 124.911 110.14 127.137 110.14C128.691 110.14 129.923 109.342 130.399 107.97L128.859 107.746C128.551 108.446 127.935 108.824 127.123 108.824C126.031 108.824 125.191 108.096 125.107 106.85H130.553L130.567 106.472ZM127.095 104.134C128.075 104.134 128.817 104.778 128.915 105.814H125.135C125.303 104.722 126.017 104.134 127.095 104.134Z" fill="#2A2A2A"/>
<g clip-path="url(#clip0_202_178)">
<path d="M70.6496 78.3298C70.3451 77.4161 69.5328 76.7055 68.6191 76.5024V52.949L89.9389 31.6292L93.9999 27.5684L98.0608 31.6292L119.381 52.949V76.4008C118.467 76.7054 117.655 77.416 117.35 78.3297C117.35 76.0962 115.523 74.2688 113.289 74.2688C111.056 74.2688 109.228 76.0962 109.228 78.3297C108.112 78.3297 107.198 79.2434 107.198 80.3602C107.198 81.477 108.112 82.3907 109.228 82.3907H103.137V78.3298H84.8629V82.3907H78.7715C79.8883 82.3907 80.802 81.477 80.802 80.3602C80.802 79.2434 79.8883 78.3297 78.7715 78.3297C78.7715 76.0962 76.9441 74.2688 74.7106 74.2688C72.4772 74.2688 70.6496 76.0962 70.6496 78.3298Z" fill="#F2EDDA"/>
<path d="M103.137 78.3298V82.3907H84.8633V78.3298H88.9242H99.0765H103.137Z" fill="#F2EDDA"/>
<path d="M116.843 82.3908H120.396C122.122 82.3908 123.442 81.071 123.442 79.3451C123.442 77.6192 122.122 76.2994 120.396 76.2994C119.99 76.2994 119.686 76.2994 119.381 76.5025C118.467 76.8071 117.655 77.5177 117.351 78.3299C117.351 76.0965 115.523 74.269 113.29 74.269C111.056 74.269 109.229 76.0965 109.229 78.3299C108.112 78.3299 107.198 79.2436 107.198 80.3604C107.198 81.4772 108.112 82.3909 109.229 82.3909H111.259H116.843V82.3908ZM78.7718 78.3299C79.8886 78.3299 80.8023 79.2436 80.8023 80.3604C80.8023 81.4772 79.8886 82.3909 78.7718 82.3909H67.6043C65.8784 82.3909 64.5586 81.0712 64.5586 79.3452C64.5586 77.6193 65.8784 76.2995 67.6043 76.2995C68.0103 76.2995 68.3149 76.2995 68.6195 76.5026C69.5332 76.8072 70.3454 77.5178 70.65 78.33C70.65 76.0966 72.4774 74.2692 74.7108 74.2692C76.9443 74.2692 78.7718 76.0963 78.7718 78.3299Z" fill="#50DD8E"/>
<path d="M99.0762 68.1776V78.33H88.9238V58.0254H99.0762V68.1776Z" fill="#FFD0A1"/>
<path d="M74.7109 70.3096H82.8328V58.0253H74.7109V70.3096ZM105.168 70.3096H113.29V58.0253H105.168V70.3096ZM94.0002 39.7512C95.7262 39.7512 97.0459 41.071 97.0459 42.7969C97.0459 44.5228 95.7262 45.8426 94.0002 45.8426C92.2743 45.8426 90.9546 44.5228 90.9546 42.7969C90.9546 41.071 92.2743 39.7512 94.0002 39.7512Z" fill="#80D6FA"/>
<path d="M89.9394 31.6293L68.6196 52.9491L64.5586 57.0101V31.6293H76.7413V27.5684H74.711V23.5076H82.8328V27.5684H80.8023V31.6293H89.9394ZM123.442 31.6293V57.01L119.381 52.9491L98.0613 31.6293H123.442Z" fill="#FF7474"/>
<path d="M120.396 82.8985C120.092 82.8985 119.888 82.6954 119.888 82.3909C119.888 82.0863 120.092 81.8832 120.396 81.8832C121.817 81.8832 122.934 80.7664 122.934 79.3452C122.934 77.9238 121.817 76.8071 120.396 76.8071C120.092 76.8071 119.888 76.8071 119.584 76.9086H119.482C118.67 77.1117 118.061 77.7209 117.858 78.4315C117.757 78.6346 117.553 78.8375 117.249 78.736C117.046 78.736 116.843 78.4315 116.843 78.2284C116.843 76.2995 115.219 74.675 113.29 74.675C111.361 74.675 109.736 76.2995 109.736 78.2284C109.736 78.533 109.533 78.736 109.229 78.736C108.416 78.736 107.706 79.4467 107.706 80.2589C107.706 81.0711 108.416 81.7817 109.229 81.7817H113.289C113.594 81.7817 113.797 81.9848 113.797 82.2894C113.797 82.5939 113.594 82.797 113.289 82.797H88.9239C88.6193 82.797 88.4163 82.5939 88.4163 82.2894C88.4163 81.9848 88.6193 81.7817 88.9239 81.7817H107.198C106.893 81.3757 106.69 80.868 106.69 80.2589C106.69 79.0406 107.604 78.0254 108.721 77.7209C108.924 75.3858 110.853 73.66 113.289 73.66C115.32 73.66 117.046 74.9797 117.655 76.8071C117.959 76.4011 118.467 76.198 118.873 75.9949V59.0406C118.873 58.736 119.076 58.5329 119.381 58.5329C119.685 58.5329 119.888 58.736 119.888 59.0406V75.7918C120.092 75.7918 120.193 75.7918 120.396 75.7918C122.325 75.7918 123.949 77.4162 123.949 79.3452C123.949 81.2741 122.325 82.8985 120.396 82.8985ZM84.863 82.8985C84.5585 82.8985 84.3554 82.6954 84.3554 82.3909V78.33C84.3554 78.0254 84.5585 77.8223 84.863 77.8223H88.4164V58.0254C88.4164 57.7208 88.6195 57.5177 88.924 57.5177H99.0763C99.3808 57.5177 99.5839 57.7208 99.5839 58.0254V77.8223H103.137C103.442 77.8223 103.645 78.0254 103.645 78.33C103.645 78.6346 103.442 78.8376 103.137 78.8376H85.3707V82.3909C85.3707 82.6954 85.1676 82.8985 84.863 82.8985ZM89.4316 77.8223H98.5686V68.6853H97.0458C96.7412 68.6853 96.5381 68.4822 96.5381 68.1776C96.5381 67.8731 96.7412 67.67 97.0458 67.67H98.5686V58.5329H89.4316V77.8223ZM78.7717 82.8985C78.4671 82.8985 78.264 82.6954 78.264 82.3909C78.264 82.0863 78.4671 81.8832 78.7717 81.8832C79.5839 81.8832 80.2945 81.1726 80.2945 80.3604C80.2945 79.5481 79.5839 78.8375 78.7717 78.8375C78.4671 78.8375 78.264 78.6344 78.264 78.3299C78.264 76.401 76.6397 74.7765 74.7107 74.7765C72.7817 74.7765 71.1575 76.401 71.1575 78.33C71.1575 78.5331 70.9544 78.736 70.7514 78.8376C70.5483 78.8376 70.2438 78.7362 70.1423 78.5331C69.8377 77.8225 69.2286 77.2133 68.5179 77.0102C68.5179 77.0102 68.5179 77.0102 68.4165 77.0102C68.1119 76.9087 67.9088 76.9088 67.6042 76.9088C66.1829 76.9088 65.0662 78.0255 65.0662 79.4468C65.0662 80.8681 66.183 81.9848 67.6042 81.9848C67.9088 81.9848 68.1119 82.1879 68.1119 82.4925C68.1119 82.797 67.9088 83.0001 67.6042 83.0001C65.6753 83.0001 64.0509 81.3758 64.0509 79.4468C64.0509 77.5179 65.6752 75.8934 67.6042 75.8934C67.8073 75.8934 67.9088 75.8934 68.1119 75.8934V59.0406C68.1119 58.736 68.315 58.5329 68.6195 58.5329C68.9241 58.5329 69.1272 58.736 69.1272 59.0406V76.0964C69.6349 76.2995 70.0409 76.6041 70.3455 76.9086C70.9546 75.0812 72.6805 73.7615 74.7109 73.7615C77.046 73.7615 78.9749 75.5889 79.2794 77.8223C80.4977 78.0254 81.3099 79.0406 81.3099 80.3604C81.3097 81.7817 80.193 82.8985 78.7717 82.8985ZM115.32 70.7158H103.137C102.833 70.7158 102.63 70.5127 102.63 70.2081C102.63 69.9036 102.833 69.7005 103.137 69.7005H104.66V58.0254C104.66 57.7208 104.863 57.5177 105.168 57.5177H113.29C113.594 57.5177 113.797 57.7208 113.797 58.0254V69.7005H115.32C115.625 69.7005 115.828 69.9036 115.828 70.2081C115.828 70.5127 115.624 70.7158 115.32 70.7158ZM105.675 69.7005H112.782V64.6243H105.675V69.7005ZM105.675 63.6091H112.782V58.5329H105.675V63.6091ZM84.863 70.7158H72.6803C72.3757 70.7158 72.1726 70.5127 72.1726 70.2081C72.1726 69.9036 72.3757 69.7005 72.6803 69.7005H74.2031V58.0254C74.2031 57.7208 74.4062 57.5177 74.7108 57.5177H82.8327C83.1372 57.5177 83.3403 57.7208 83.3403 58.0254V69.7005H84.8632C85.1677 69.7005 85.3708 69.9036 85.3708 70.2081C85.3708 70.5127 85.1676 70.7158 84.863 70.7158ZM75.2183 69.7005H82.3249V64.6243H75.2183V69.7005ZM75.2183 63.6091H82.3249V58.5329H75.2183V63.6091ZM64.5584 57.5177C64.457 57.5177 64.457 57.5177 64.3553 57.5177C64.1523 57.4162 64.0508 57.2132 64.0508 57.0101V31.6294C64.0508 31.5279 64.1523 31.3248 64.1523 31.2234C64.1523 31.1219 64.3553 31.1219 64.5583 31.1219H76.2334V28.0762H74.7106C74.406 28.0762 74.2029 27.8731 74.2029 27.5685V23.5077C74.2031 23.2031 74.4062 23 74.7108 23H82.8327C83.1372 23 83.3403 23.2031 83.3403 23.5077V27.5685C83.3403 27.8731 83.1372 28.0762 82.8327 28.0762H81.3098V31.1219H83.8479C84.1524 31.1219 84.3555 31.325 84.3555 31.6295C84.3555 31.9341 84.1524 32.1372 83.8479 32.1372H80.8022C80.4976 32.1372 80.2945 31.9341 80.2945 31.6295V27.5685C80.2945 27.264 80.4976 27.0609 80.8022 27.0609H82.325V24.0152H75.2183V27.0609H76.7412C77.0457 27.0609 77.2488 27.264 77.2488 27.5685V31.6294C77.2488 31.934 77.0457 32.1371 76.7412 32.1371H65.0661V55.7919L93.594 27.264C93.6955 27.1625 93.8986 27.1625 94.0001 27.1625C94.2032 27.1625 94.3047 27.1625 94.4062 27.264L122.934 55.7919V32.1371H104.152C103.848 32.1371 103.645 31.934 103.645 31.6294C103.645 31.3248 103.848 31.1217 104.152 31.1217H123.442C123.746 31.1217 123.949 31.3248 123.949 31.6294V57.0101C123.949 57.2132 123.848 57.4161 123.645 57.5177C123.442 57.6192 123.239 57.5177 123.137 57.4162L94.1016 28.3808L65.0661 57.4162C64.863 57.4162 64.66 57.5177 64.5584 57.5177ZM94.0001 46.3503C92.0712 46.3503 90.4468 44.726 90.4468 42.797C90.4468 40.8679 92.0711 39.2436 94.0001 39.2436C95.9291 39.2436 97.5534 40.8679 97.5534 42.797C97.5534 44.726 95.929 46.3503 94.0001 46.3503ZM94.0001 40.2589C92.5787 40.2589 91.4621 41.3757 91.4621 42.797C91.4621 44.2182 92.5789 45.335 94.0001 45.335C95.4215 45.335 96.5381 44.2182 96.5381 42.797C96.5381 41.3757 95.4215 40.2589 94.0001 40.2589Z" fill="#51565F"/>
</g>
</g>
<defs>
<filter id="filter0_d_202_178" x="0" y="0" width="188" height="137" filterUnits="userSpaceOnUse" color-interpolation-filters="sRGB">
<feFlood flood-opacity="0" result="BackgroundImageFix"/>
<feColorMatrix in="SourceAlpha" type="matrix" values="0 0 0 0 0 0 0 0 0 0 0 0 0 0 0 0 0 0 127 0" result="hardAlpha"/>
<feOffset dy="1"/>
<feGaussianBlur stdDeviation="2.5"/>
<feColorMatrix type="matrix" values="0 0 0 0 0 0 0 0 0 0 0 0 0 0 0 0 0 0 0.06 0"/>
<feBlend mode="normal" in2="BackgroundImageFix" result="effect1_dropShadow_202_178"/>
<feBlend mode="normal" in="SourceGraphic" in2="effect1_dropShadow_202_178" result="shape"/>
</filter>
<clipPath id="clip0_202_178">
<rect width="60" height="60" fill="white" transform="translate(64 23)"/>
</clipPath>
</defs>
</svg>
