<svg width="43" height="26" viewBox="0 0 43 26" fill="none" xmlns="http://www.w3.org/2000/svg">
<rect y="0.0976562" width="43" height="25.0498" rx="4" fill="white"/>
<path fill-rule="evenodd" clip-rule="evenodd" d="M36.2954 14.5704H34.7762C34.6245 14.5704 34.5237 14.5759 34.4388 14.6314C34.3509 14.6861 34.317 14.7673 34.317 14.8744C34.317 15.0018 34.3913 15.0884 34.4993 15.1259C34.5872 15.1555 34.6817 15.1642 34.8206 15.1642L35.2723 15.1759C35.7282 15.1868 36.0325 15.2626 36.2181 15.4477C36.2519 15.4734 36.2722 15.5023 36.2954 15.5312V14.5704ZM36.2954 16.7965C36.0929 17.0832 35.6984 17.2285 35.1642 17.2285H33.5545V16.5044H35.1577C35.3168 16.5044 35.428 16.4841 35.495 16.4208C35.5531 16.3686 35.5936 16.2927 35.5936 16.2006C35.5936 16.1022 35.5531 16.0241 35.4918 15.9773C35.4313 15.9258 35.3433 15.9023 35.1981 15.9023C34.4154 15.8766 33.439 15.9258 33.439 14.8573C33.439 14.3675 33.7602 13.852 34.6349 13.852H36.2953V13.1802H34.7526C34.2871 13.1802 33.9489 13.2881 33.7094 13.4559V13.1802H31.4276C31.0627 13.1802 30.6344 13.2677 30.4318 13.4559V13.1802H26.3571V13.4559C26.0328 13.2295 25.4856 13.1802 25.2331 13.1802H22.5453V13.4559C22.2888 13.2154 21.7183 13.1802 21.3705 13.1802H18.3625L17.6742 13.9013L17.0295 13.1802H12.5361V17.8916H16.9449L17.6542 17.1591L18.3223 17.8916L21.0399 17.894V16.7856H21.3071C21.6677 16.791 22.0929 16.777 22.4681 16.62V17.8915H24.7097V16.6636H24.8178C24.9558 16.6636 24.9694 16.6691 24.9694 16.8025V17.8914H31.7787C32.211 17.8914 32.6629 17.7843 32.9131 17.5899V17.8914H35.073C35.5225 17.8914 35.9614 17.8304 36.2954 17.6742V16.7965ZM32.9703 15.4476C33.1326 15.6102 33.2196 15.8155 33.2196 16.163C33.2196 16.8894 32.7508 17.2285 31.9101 17.2285H30.2866V16.5044H31.9036C32.0617 16.5044 32.1738 16.4842 32.2441 16.4208C32.3014 16.3686 32.3426 16.2927 32.3426 16.2006C32.3426 16.1022 32.2981 16.0241 32.2408 15.9773C32.1771 15.9258 32.0892 15.9024 31.944 15.9024C31.1645 15.8766 30.1882 15.9258 30.1882 14.8573C30.1882 14.3675 30.5061 13.852 31.38 13.852H33.0511V14.5706H31.522C31.3704 14.5706 31.2719 14.5761 31.188 14.6316C31.0967 14.6863 31.0629 14.7675 31.0629 14.8746C31.0629 15.002 31.1404 15.0886 31.2453 15.1261C31.3332 15.1557 31.4276 15.1644 31.5696 15.1644L32.0184 15.1761C32.4709 15.1868 32.7815 15.2625 32.9703 15.4476ZM25.4487 15.2391C25.3372 15.3032 25.1993 15.3087 25.0371 15.3087H24.0244V14.5503H25.0509C25.1993 14.5503 25.3478 14.5533 25.4487 14.6113C25.5568 14.6659 25.6213 14.7705 25.6213 14.915C25.6213 15.0595 25.5568 15.1759 25.4487 15.2391ZM25.9521 15.6593C26.1377 15.7256 26.2894 15.8444 26.3605 15.9428C26.4782 16.1076 26.4952 16.2615 26.4986 16.5591V17.2285H25.6617V16.806C25.6617 16.6029 25.6819 16.3021 25.527 16.1451C25.4052 16.0241 25.2195 15.9952 24.9154 15.9952H24.0246V17.2285H23.187V13.8519H25.1115C25.5335 13.8519 25.8409 13.8699 26.1144 14.0112C26.3775 14.1651 26.543 14.3759 26.543 14.7611C26.5429 15.3 26.1716 15.575 25.9521 15.6593ZM27.0051 13.8519H29.7872V14.5502H27.8353V15.1641H29.7396V15.853H27.8353V16.5248L29.7872 16.5279V17.2285H27.0051V13.8519ZM21.3811 15.4102H20.304V14.5503H21.3908C21.6917 14.5503 21.9006 14.669 21.9006 14.9643C21.9006 15.2563 21.7014 15.4102 21.3811 15.4102ZM19.4736 16.9214L18.1938 15.546L19.4736 14.2143V16.9214ZM16.1686 16.5248H14.1191V15.853H15.9492V15.1641H14.1191V14.5502H16.209L17.1207 15.5342L16.1686 16.5248ZM22.7955 14.9643C22.7955 15.9023 22.0726 16.0959 21.344 16.0959H20.3039V17.2285H18.6837L17.6573 16.1107L16.5906 17.2285H13.2888V13.8519H16.6414L17.667 14.9587L18.7273 13.8519H21.3908C22.0523 13.8519 22.7955 14.0292 22.7955 14.9643Z" fill="#0072CE"/>
<path fill-rule="evenodd" clip-rule="evenodd" d="M9.31201 9.96054L8.74147 8.61481L8.17419 9.96054H9.31201ZM21.8807 9.42466C21.7662 9.49196 21.6307 9.4942 21.4684 9.4942H20.4557V8.74442H21.4821C21.6274 8.74442 21.779 8.75073 21.8775 8.8053C21.9856 8.85448 22.0525 8.95915 22.0525 9.10373C22.0525 9.25126 21.9888 9.36998 21.8807 9.42466ZM29.1046 9.96054L28.5278 8.61481L27.9541 9.96054H29.1046ZM15.6387 11.4172H14.7841L14.781 8.77331L13.5723 11.4172H12.8404L11.6286 8.77096V11.4172H9.93318L9.61289 10.6642H7.87732L7.55377 11.4172H6.64844L8.14113 8.04141H9.37959L10.7973 11.2376V8.04141H12.1578L13.2486 10.3315L14.2507 8.04141H15.6386V11.4172H15.6387ZM19.0446 11.4172H16.2599V8.04141H19.0446V8.74439H17.0935V9.35287H18.9977V10.0449H17.0935V10.719H19.0446V11.4172ZM22.9707 8.95058C22.9707 9.48881 22.5996 9.76688 22.3833 9.85037C22.5657 9.91758 22.7215 10.0363 22.7957 10.1347C22.9134 10.3026 22.9337 10.4525 22.9337 10.754V11.4172H22.0929L22.0898 10.9915C22.0898 10.7884 22.1099 10.4962 21.9582 10.3338C21.8364 10.2151 21.6507 10.1893 21.3506 10.1893H20.4558V11.4172H19.6223V8.04141H21.5395C21.9655 8.04141 22.2794 8.05231 22.5489 8.20311C22.8126 8.3539 22.9707 8.57404 22.9707 8.95058ZM24.3047 11.4172H23.4541V8.04141H24.3047V11.4172ZM34.172 11.4172H32.9908L31.4108 8.88348V11.4172H29.7132L29.3888 10.6642H27.6572L27.3425 11.4172H26.3671C25.9619 11.4172 25.4489 11.3305 25.1584 11.0438C24.8654 10.7572 24.713 10.369 24.713 9.75507C24.713 9.25441 24.8041 8.79673 25.1624 8.43505C25.4319 8.16563 25.8539 8.04141 26.4283 8.04141H27.2353V8.76475H26.4452C26.141 8.76475 25.9693 8.80854 25.8038 8.96473C25.6617 9.10687 25.5642 9.37558 25.5642 9.72941C25.5642 10.0911 25.6384 10.3518 25.7934 10.5222C25.9217 10.6558 26.1549 10.6963 26.3743 10.6963H26.7487L27.9235 8.04151H29.1725L30.5838 11.2345V8.04151H31.853L33.3182 10.3926V8.04151H34.172V11.4172ZM6.63878 12.0803H8.063L8.38413 11.3305H9.10308L9.42337 12.0803H12.2256V11.507L12.4758 12.0827H13.9305L14.1806 11.4985V12.0803H21.1448L21.1415 10.8495H21.2763C21.3706 10.8526 21.3982 10.8611 21.3982 11.0119V12.0803H25.0001V11.7938C25.2906 11.9445 25.7425 12.0803 26.3371 12.0803H27.8524L28.1767 11.3305H28.8957L29.2128 12.0803H32.1329V11.368L32.5751 12.0803H34.915V7.37207H32.5993V7.92812L32.275 7.37207H29.8987V7.92812L29.6009 7.37207H26.3912C25.8539 7.37207 25.3816 7.44467 25.0001 7.64699V7.37207H22.7851V7.64699C22.5423 7.43846 22.2115 7.37207 21.8437 7.37207H13.7514L13.2084 8.58812L12.6508 7.37207H10.1019V7.92812L9.82192 7.37207H7.64814L6.63867 9.61061V12.0803H6.63878Z" fill="#0072CE"/>
</svg>
