<svg width="213" height="64" viewBox="0 0 213 64" fill="none" xmlns="http://www.w3.org/2000/svg">
<path d="M211.357 55.656C211.357 58.9918 208.664 61.7117 205.304 61.7117H7.43745C4.10334 61.7117 1.38477 59.0174 1.38477 55.656V7.46685C1.38477 4.13107 4.10334 1.41113 7.43745 1.41113H205.304C208.638 1.41113 211.357 4.13107 211.357 7.46685V55.656Z" fill="white"/>
<path d="M205.33 63.0975H7.46329C3.35977 63.0975 0 59.7617 0 55.6562V7.46701C0 3.36144 3.33412 0 7.46329 0H205.33C209.433 0 212.793 3.33578 212.793 7.46701V55.6562C212.768 59.7617 209.433 63.0975 205.33 63.0975Z" fill="#A6A6A6"/>
<path d="M211.357 55.656C211.357 58.9918 208.664 61.7117 205.304 61.7117H7.43745C4.10334 61.7117 1.38477 59.0174 1.38477 55.656V7.46685C1.38477 4.13107 4.10334 1.41113 7.43745 1.41113H205.304C208.638 1.41113 211.357 4.13107 211.357 7.46685V55.656Z" fill="black"/>
<path d="M47.498 31.2282C47.4467 26.1476 51.6528 23.6586 51.858 23.5559C49.4728 20.0918 45.7797 19.6043 44.4717 19.5786C41.3684 19.2451 38.3677 21.4262 36.7776 21.4262C35.1618 21.4262 32.7254 19.6043 30.1094 19.6556C26.724 19.7069 23.5694 21.6571 21.851 24.7106C18.2861 30.8946 20.9534 40.0039 24.3644 45.0075C26.0828 47.4709 28.0832 50.1908 30.6992 50.0882C33.2639 49.9855 34.2129 48.446 37.3162 48.446C40.3682 48.446 41.2915 50.0882 43.9587 50.0112C46.703 49.9599 48.447 47.5479 50.0884 45.0845C52.0632 42.2876 52.8582 39.5163 52.8839 39.3624C52.8326 39.3367 47.5493 37.3096 47.498 31.2282Z" fill="white"/>
<path d="M42.4459 16.2683C43.8308 14.549 44.7797 12.1883 44.4976 9.82764C42.4971 9.90462 40.0094 11.2133 38.5732 12.9068C37.2908 14.3951 36.1623 16.8328 36.4701 19.1165C38.727 19.2704 41.0096 17.9618 42.4459 16.2683Z" fill="white"/>
<path d="M205.33 0H99.3564L140.879 63.0975H205.356C209.459 63.0975 212.819 59.7617 212.819 55.6562V7.46701C212.768 3.36144 209.433 0 205.33 0Z" fill="url(#paint0_linear_202_689)"/>
<path d="M84.6354 49.7031H81.0448L79.0957 43.5448H72.2479L70.3757 49.7031H66.8877L73.6329 28.7134H77.8133L84.6354 49.7031ZM78.4801 40.9531L76.7105 35.4619C76.531 34.8974 76.1719 33.5887 75.659 31.5103H75.6077C75.4025 32.4084 75.0691 33.717 74.6075 35.4619L72.8634 40.9531H78.4801Z" fill="white"/>
<path d="M101.973 41.9535C101.973 44.5195 101.28 46.5723 99.8697 48.0606C98.613 49.3949 97.0485 50.062 95.202 50.062C93.2015 50.062 91.7653 49.3436 90.8933 47.9066V55.8612H87.5335V39.5672C87.5335 37.9506 87.4822 36.2827 87.4053 34.5892H90.3547L90.5342 37.0012H90.5855C91.714 35.205 93.4067 34.2812 95.6893 34.2812C97.4845 34.2812 98.9721 34.9741 100.152 36.411C101.357 37.7966 101.973 39.6442 101.973 41.9535ZM98.5361 42.0818C98.5361 40.6192 98.2027 39.3876 97.5358 38.4381C96.8177 37.4374 95.8431 36.9499 94.6121 36.9499C93.7914 36.9499 93.022 37.2321 92.3551 37.771C91.6883 38.3355 91.2267 39.054 91.0215 39.9264C90.9189 40.337 90.8676 40.6705 90.8676 40.9528V43.4675C90.8676 44.5708 91.201 45.4946 91.8679 46.2644C92.5347 47.0342 93.4323 47.3934 94.5095 47.3934C95.7662 47.3934 96.7664 46.9059 97.4589 45.9308C98.177 44.9557 98.5361 43.6727 98.5361 42.0818Z" fill="white"/>
<path d="M119.361 41.9535C119.361 44.5195 118.669 46.5723 117.258 48.0606C116.002 49.3949 114.437 50.062 112.591 50.062C110.59 50.062 109.154 49.3436 108.282 47.9066V55.8612H104.922V39.5672C104.922 37.9506 104.871 36.2827 104.794 34.5892H107.743L107.923 37.0012H107.974C109.103 35.205 110.795 34.2812 113.078 34.2812C114.873 34.2812 116.361 34.9741 117.541 36.411C118.772 37.7966 119.361 39.6442 119.361 41.9535ZM115.95 42.0818C115.95 40.6192 115.617 39.3876 114.95 38.4381C114.232 37.4374 113.257 36.9499 112.026 36.9499C111.206 36.9499 110.436 37.2321 109.769 37.771C109.103 38.3355 108.667 39.054 108.436 39.9264C108.333 40.337 108.282 40.6705 108.282 40.9528V43.4675C108.282 44.5708 108.615 45.4946 109.282 46.2644C109.949 47.0085 110.847 47.3934 111.924 47.3934C113.181 47.3934 114.181 46.9059 114.873 45.9308C115.591 44.9557 115.95 43.6727 115.95 42.0818Z" fill="white"/>
<path d="M138.828 43.8268C138.828 45.623 138.212 47.0599 136.955 48.1889C135.596 49.4206 133.672 50.0365 131.236 50.0365C128.979 50.0365 127.158 49.6002 125.799 48.7278L126.568 45.9309C128.03 46.8033 129.672 47.2395 131.416 47.2395C132.672 47.2395 133.672 46.9573 134.365 46.3928C135.057 45.8282 135.416 45.0584 135.416 44.109C135.416 43.2623 135.134 42.5438 134.544 41.9536C133.955 41.3634 133.006 40.8246 131.646 40.337C127.979 38.9771 126.132 36.9499 126.132 34.3326C126.132 32.6134 126.773 31.2021 128.081 30.0988C129.389 28.9954 131.108 28.4565 133.236 28.4565C135.134 28.4565 136.75 28.7901 138.007 29.4573L137.16 32.2029C135.981 31.5614 134.621 31.2278 133.134 31.2278C131.954 31.2278 131.005 31.5101 130.364 32.1002C129.8 32.6134 129.518 33.2549 129.518 33.9991C129.518 34.8202 129.851 35.513 130.492 36.0518C131.056 36.5394 132.057 37.0782 133.544 37.6684C135.34 38.3869 136.673 39.2337 137.52 40.2087C138.417 41.1582 138.828 42.3642 138.828 43.8268Z" fill="white"/>
<path d="M149.984 37.104H146.265V44.4428C146.265 46.3159 146.906 47.2397 148.214 47.2397C148.804 47.2397 149.317 47.1884 149.702 47.0857L149.804 49.6517C149.138 49.9083 148.266 50.0366 147.188 50.0366C145.855 50.0366 144.829 49.626 144.085 48.8306C143.341 48.0095 142.957 46.6495 142.957 44.7507V37.104H140.751V34.5894H142.957V31.8181L146.265 30.8174V34.5894H149.984C149.984 34.5637 149.984 37.104 149.984 37.104Z" fill="white"/>
<path d="M166.68 42.0305C166.68 44.3656 166.014 46.2644 164.68 47.7527C163.295 49.2922 161.448 50.062 159.14 50.062C156.909 50.062 155.139 49.3179 153.831 47.8553C152.523 46.3927 151.856 44.5195 151.856 42.2871C151.856 39.9521 152.549 38.0276 153.908 36.5137C155.267 35.0254 157.114 34.2812 159.397 34.2812C161.628 34.2812 163.398 35.0254 164.757 36.488C166.014 37.8993 166.68 39.7468 166.68 42.0305ZM163.192 42.1075C163.192 40.7219 162.885 39.5415 162.295 38.5408C161.602 37.3348 160.576 36.7446 159.268 36.7446C157.909 36.7446 156.883 37.3348 156.191 38.5408C155.601 39.5415 155.293 40.7475 155.293 42.1845C155.293 43.5701 155.601 44.7761 156.191 45.7512C156.909 46.9572 157.935 47.5474 159.243 47.5474C160.525 47.5474 161.525 46.9315 162.269 45.7255C162.859 44.6735 163.192 43.4931 163.192 42.1075Z" fill="white"/>
<path d="M177.605 37.5403C177.272 37.489 176.913 37.4377 176.554 37.4377C175.374 37.4377 174.451 37.8739 173.81 38.772C173.245 39.5674 172.963 40.5682 172.963 41.7742V49.7287H169.604V39.3622C169.604 37.6173 169.578 36.0264 169.501 34.5894H172.425L172.553 37.489H172.656C173.015 36.4883 173.579 35.6928 174.348 35.077C175.092 34.5381 175.913 34.2559 176.785 34.2559C177.092 34.2559 177.375 34.2815 177.631 34.3072L177.605 37.5403Z" fill="white"/>
<path d="M192.635 41.4148C192.635 42.005 192.584 42.5182 192.507 42.9287H182.428C182.453 44.417 182.966 45.5717 183.89 46.3671C184.736 47.0599 185.839 47.4192 187.198 47.4192C188.686 47.4192 190.045 47.1882 191.276 46.7007L191.815 49.0357C190.378 49.6516 188.686 49.9595 186.736 49.9595C184.403 49.9595 182.556 49.2667 181.197 47.8811C179.863 46.4954 179.196 44.6479 179.196 42.3129C179.196 40.0292 179.812 38.1303 181.069 36.6164C182.377 34.9998 184.146 34.1787 186.352 34.1787C188.532 34.1787 190.173 34.9998 191.302 36.6164C192.199 37.9507 192.635 39.5416 192.635 41.4148ZM189.429 40.5423C189.455 39.5416 189.224 38.6948 188.788 37.9507C188.198 37.0013 187.301 36.5394 186.121 36.5394C185.018 36.5394 184.121 37.0013 183.454 37.8994C182.889 38.6179 182.556 39.4903 182.453 40.5167L189.429 40.5423Z" fill="white"/>
<path d="M76.8638 21.1951H75.0942L74.1196 18.1673H70.7598L69.8365 21.1951H68.1182L71.4266 10.8799H73.4784L76.8638 21.1951ZM73.8631 16.9099L72.9911 14.2157C72.8885 13.9334 72.7346 13.2919 72.4782 12.2655H72.4525C72.3499 12.7017 72.196 13.3432 71.9652 14.2157L71.1189 16.9099H73.8631Z" fill="white"/>
<path d="M85.1731 13.7534L82.3519 21.1948H80.7362L78.0176 13.7534H79.7872L81.0696 17.6794C81.2747 18.3465 81.4543 18.9624 81.6082 19.5525H81.6595C81.7877 19.0137 81.9672 18.3978 82.198 17.6794L83.4547 13.7534C83.4291 13.7534 85.1731 13.7534 85.1731 13.7534Z" fill="white"/>
<path d="M91.1743 21.1949L91.0461 20.3481H90.9948C90.4819 21.0409 89.7637 21.3745 88.8148 21.3745C87.4812 21.3745 86.5322 20.4507 86.5322 19.1934C86.5322 17.3459 88.1223 16.3965 90.8666 16.3965V16.2682C90.8666 15.2931 90.3536 14.8056 89.3277 14.8056C88.584 14.8056 87.9428 14.9852 87.3786 15.3701L87.0452 14.2924C87.7376 13.8562 88.584 13.6509 89.6099 13.6509C91.559 13.6509 92.5336 14.6773 92.5336 16.7301V19.4757C92.5336 20.2198 92.5593 20.81 92.6362 21.2462L91.1743 21.1949ZM90.9435 17.4999C89.0969 17.4999 88.1993 17.9361 88.1993 18.9881C88.1993 19.7579 88.6866 20.1428 89.3277 20.1428C90.1741 20.1428 90.9435 19.5013 90.9435 18.6289C90.9435 18.6545 90.9435 17.4999 90.9435 17.4999Z" fill="white"/>
<path d="M96.2275 12.5217C95.6889 12.5217 95.2529 12.0855 95.2529 11.521C95.2529 10.9565 95.6889 10.5459 96.2532 10.5459C96.8174 10.5459 97.279 10.9565 97.2534 11.521C97.279 12.1368 96.843 12.5217 96.2275 12.5217ZM97.0739 21.1947H95.4325V13.7534H97.0739V21.1947Z" fill="white"/>
<path d="M101.665 21.1949H100.023V10.3408H101.665V21.1949Z" fill="white"/>
<path d="M108.692 21.1949L108.564 20.3481H108.512C107.999 21.0409 107.281 21.3745 106.332 21.3745C104.999 21.3745 104.05 20.4507 104.05 19.1934C104.05 17.3459 105.64 16.3965 108.384 16.3965V16.2682C108.384 15.2931 107.871 14.8056 106.845 14.8056C106.102 14.8056 105.46 14.9852 104.896 15.3701L104.563 14.2924C105.255 13.8562 106.102 13.6509 107.127 13.6509C109.077 13.6509 110.051 14.6773 110.051 16.7301V19.4757C110.051 20.2198 110.077 20.81 110.154 21.2462H108.692V21.1949ZM108.461 17.4999C106.615 17.4999 105.717 17.9361 105.717 18.9881C105.717 19.7579 106.204 20.1428 106.845 20.1428C107.692 20.1428 108.461 19.5013 108.461 18.6289V17.4999Z" fill="white"/>
<path d="M116.77 21.3748C115.719 21.3748 114.924 20.9386 114.436 20.0661H114.411L114.308 21.2208H112.897C112.949 20.6306 112.949 19.9378 112.949 19.2193V10.3667H114.616V14.8572H114.641C115.129 14.0361 115.924 13.6255 117.001 13.6255C118.796 13.6255 120.053 15.1651 120.053 17.3975C120.053 19.6812 118.668 21.3748 116.77 21.3748ZM116.437 14.9085C115.488 14.9085 114.616 15.7296 114.616 16.8843V18.193C114.616 19.2193 115.385 20.0661 116.411 20.0661C117.642 20.0661 118.386 19.0654 118.386 17.4488C118.386 15.9349 117.617 14.9085 116.437 14.9085Z" fill="white"/>
<path d="M124.157 21.1949H122.516V10.3408H124.157V21.1949Z" fill="white"/>
<path d="M133.159 17.8848H128.209C128.235 19.2961 129.184 20.0915 130.543 20.0915C131.287 20.0915 131.954 19.9633 132.544 19.7323L132.8 20.887C132.108 21.1949 131.261 21.3489 130.312 21.3489C127.978 21.3489 126.619 19.8863 126.619 17.6025C126.619 15.3188 128.03 13.5996 130.133 13.5996C132.031 13.5996 133.236 15.0109 133.236 17.1407C133.21 17.4229 133.21 17.6795 133.159 17.8848ZM131.646 16.7045C131.646 15.5498 131.056 14.7543 130.005 14.7543C129.056 14.7543 128.312 15.5754 128.209 16.7045H131.646Z" fill="white"/>
<path d="M143.187 21.3748C141.007 21.3748 139.597 19.7582 139.597 17.5514C139.597 15.2421 141.033 13.6255 143.315 13.6255C145.444 13.6255 146.906 15.1651 146.906 17.4488C146.88 19.7582 145.393 21.3748 143.187 21.3748ZM143.239 14.8058C142.033 14.8058 141.289 15.9349 141.289 17.4745C141.289 19.0141 142.059 20.1174 143.239 20.1174C144.418 20.1174 145.188 18.9114 145.188 17.4488C145.162 15.9605 144.393 14.8058 143.239 14.8058Z" fill="white"/>
<path d="M155.754 21.1949H154.113V16.9097C154.113 15.6011 153.6 14.9339 152.625 14.9339C151.651 14.9339 150.958 15.7807 150.958 16.7558V21.1949H149.317V15.8833C149.317 15.2162 149.291 14.5234 149.266 13.7536H150.728L150.804 14.9083H150.856C151.292 14.1128 152.215 13.5996 153.215 13.5996C154.78 13.5996 155.806 14.8056 155.806 16.7301L155.754 21.1949Z" fill="white"/>
<path d="M166.577 15.0111H164.756V18.6291C164.756 19.5529 165.064 20.0148 165.731 20.0148C166.013 20.0148 166.269 19.9891 166.475 19.9378L166.526 21.1951C166.192 21.3234 165.782 21.3747 165.243 21.3747C163.935 21.3747 163.166 20.6563 163.166 18.7831V15.0368H162.089V13.7538H163.166V12.3938L164.782 11.9062V13.7538H166.603V15.0111H166.577Z" fill="white"/>
<path d="M175.322 21.1949H173.655V16.9611C173.655 15.6267 173.142 14.9596 172.168 14.9596C171.321 14.9596 170.526 15.5498 170.526 16.7301V21.1949H168.859V10.3408H170.526V14.8056H170.552C171.065 13.9845 171.834 13.5996 172.783 13.5996C174.348 13.5996 175.322 14.8313 175.322 16.7814V21.1949Z" fill="white"/>
<path d="M183.786 17.8848H178.811C178.836 19.2961 179.785 20.0915 181.145 20.0915C181.888 20.0915 182.555 19.9633 183.145 19.7323L183.402 20.887C182.709 21.1949 181.863 21.3489 180.914 21.3489C178.58 21.3489 177.221 19.8863 177.221 17.6025C177.221 15.3188 178.631 13.5996 180.734 13.5996C182.632 13.5996 183.838 15.0109 183.838 17.1407C183.838 17.4229 183.812 17.6795 183.786 17.8848ZM182.273 16.7045C182.273 15.5498 181.683 14.7543 180.632 14.7543C179.683 14.7543 178.939 15.5754 178.836 16.7045H182.273Z" fill="white"/>
<defs>
<linearGradient id="paint0_linear_202_689" x1="156.055" y1="63.2731" x2="156.055" y2="6.39843" gradientUnits="userSpaceOnUse">
<stop stop-color="#1A1A1A" stop-opacity="0.1"/>
<stop offset="0.1235" stop-color="#212121" stop-opacity="0.1506"/>
<stop offset="0.3085" stop-color="#353535" stop-opacity="0.2265"/>
<stop offset="0.5321" stop-color="#575757" stop-opacity="0.3181"/>
<stop offset="0.7834" stop-color="#858585" stop-opacity="0.4212"/>
<stop offset="1" stop-color="#B3B3B3" stop-opacity="0.51"/>
</linearGradient>
</defs>
</svg>
