<svg width="43" height="26" viewBox="0 0 43 26" fill="none" xmlns="http://www.w3.org/2000/svg">
<rect y="0.0976562" width="43" height="25.0498" rx="4" fill="white"/>
<path fill-rule="evenodd" clip-rule="evenodd" d="M24.5166 12.6228C24.5166 17.1825 20.6845 20.8787 15.9573 20.8787C11.2304 20.8787 7.39844 17.1825 7.39844 12.6228C7.39844 8.0636 11.2304 4.36719 15.9573 4.36719C20.6845 4.36719 24.5166 8.0636 24.5166 12.6228Z" fill="#333399"/>
<path fill-rule="evenodd" clip-rule="evenodd" d="M27.4486 4.36719C25.2372 4.36719 23.222 5.17648 21.7029 6.50412C21.3937 6.77445 21.1048 7.06696 20.8389 7.37786H22.5678C22.8045 7.65511 23.0221 7.94657 23.2204 8.25213H20.1863C20.0046 8.5329 19.8395 8.82449 19.6933 9.12639H23.7134C23.8506 9.40951 23.9719 9.70097 24.0758 10.0001H19.3305C19.2316 10.2853 19.1487 10.5768 19.082 10.8745H24.3241C24.4502 11.4382 24.517 12.0229 24.517 12.6228C24.517 13.5396 24.3618 14.4216 24.0758 15.2455H19.3305C19.4346 15.5448 19.5558 15.8366 19.693 16.1197H23.7134C23.5668 16.4214 23.402 16.7132 23.22 16.994H20.1863C20.3844 17.299 20.6025 17.591 20.8389 17.8677H22.5675C22.302 18.1792 22.0128 18.4717 21.7032 18.742C23.2221 20.0696 25.2372 20.8787 27.4486 20.8787C32.1756 20.8787 36.0076 17.1825 36.0076 12.6228C36.0076 8.0636 32.1756 4.36719 27.4486 4.36719Z" fill="#0066CC"/>
<path fill-rule="evenodd" clip-rule="evenodd" d="M34.8662 17.2243C34.8662 17.0771 34.9901 16.958 35.1425 16.958C35.2953 16.958 35.4188 17.0771 35.4188 17.2243C35.4188 17.3716 35.2953 17.4911 35.1425 17.4911C34.9901 17.4911 34.8662 17.3716 34.8662 17.2243ZM35.1425 17.4272C35.2588 17.4272 35.3527 17.3365 35.3527 17.2243C35.3527 17.1125 35.2588 17.0221 35.1425 17.0221C35.0267 17.0221 34.9327 17.1125 34.9327 17.2243C34.9327 17.3365 35.0267 17.4272 35.1425 17.4272ZM35.1052 17.3413H35.0487V17.1074H35.1512C35.1726 17.1074 35.1942 17.1074 35.2132 17.1191C35.2328 17.132 35.2439 17.1545 35.2439 17.1774C35.2439 17.2042 35.2281 17.229 35.2021 17.2384L35.2465 17.3413H35.1836L35.1468 17.2488H35.1052V17.3413ZM35.1053 17.2087H35.1366C35.1482 17.2087 35.1608 17.2095 35.1711 17.2042C35.1804 17.1983 35.1853 17.1876 35.1853 17.1772C35.1853 17.1683 35.1796 17.1581 35.1716 17.1533C35.1616 17.1477 35.1459 17.1491 35.1355 17.1491H35.1053V17.2087Z" fill="#0066CC"/>
<path fill-rule="evenodd" clip-rule="evenodd" d="M15.4639 10.7327C15.3874 11.0565 15.3474 11.24 15.2438 11.6342C14.6002 11.371 13.7373 11.2336 13.0752 11.6324C12.4505 12.016 12.2393 12.6144 12.2849 13.2773C12.3309 13.5963 12.5791 13.9079 12.9286 14.0431C13.5346 14.2589 14.1128 14.1799 14.7565 13.8626C14.6649 14.2617 14.5959 14.5751 14.516 14.8604C13.7439 15.0684 13.0111 15.1368 12.2393 14.8893C11.5499 14.658 10.9891 14.0591 10.9436 13.4129C10.7872 12.3752 11.302 11.3134 12.3494 10.8261C13.3234 10.4034 14.4346 10.4769 15.4639 10.7327Z" fill="#000066"/>
<path fill-rule="evenodd" clip-rule="evenodd" d="M26.3698 14.4209C26.1662 14.6173 25.8205 15.0478 24.8808 15.0478C24.025 15.0478 23.4243 14.439 23.7285 13.0721C23.7285 13.0718 24.0824 11.4629 24.0824 11.4629H25.3883C25.3883 11.4629 25.0337 13.0736 25.0343 13.0721C24.9137 13.6195 24.9422 14.0361 25.5187 14.0361C26.1981 14.0361 26.4014 13.6399 26.5298 13.0721C26.5288 13.0729 26.8844 11.4629 26.8844 11.4629H28.2469L27.6607 14.0497C27.594 14.3531 27.5303 14.6745 27.4935 14.9914H26.2672C26.2672 14.9914 26.3446 14.5605 26.3698 14.4209Z" fill="#000066"/>
<path fill-rule="evenodd" clip-rule="evenodd" d="M28.6806 12.5788C28.6806 13.0263 28.9852 13.3322 29.6775 13.5606C30.2119 13.7408 30.2957 13.7936 30.2957 13.9503C30.2957 14.1736 30.0571 14.2683 29.5421 14.2683C29.15 14.2683 28.7858 14.2306 28.3644 14.1325C28.3644 14.1325 28.1985 14.8644 28.1816 14.9479C28.5481 15.0109 29.1825 15.0478 29.5511 15.0478C30.934 15.0478 31.5753 14.6749 31.5753 13.8705C31.5753 13.3892 31.3064 13.1058 30.6504 12.8887C30.0973 12.7134 30.036 12.6729 30.036 12.5055C30.036 12.3182 30.2545 12.2188 30.6795 12.2188C30.9352 12.2188 31.2934 12.2396 31.6263 12.2733L31.8099 11.4546C31.4702 11.4156 30.9525 11.3843 30.6539 11.3843C29.1862 11.3843 28.676 11.9292 28.6806 12.5788Z" fill="#000066"/>
<path fill-rule="evenodd" clip-rule="evenodd" d="M15.9614 11.4629H17.3279L16.5494 14.9914H15.1826L15.9614 11.4629Z" fill="#000066"/>
<path fill-rule="evenodd" clip-rule="evenodd" d="M23.7675 11.4478C22.8039 11.3251 22.5289 11.7817 22.2701 12.0087C22.301 11.825 22.3579 11.6459 22.3466 11.4628H21.0914C20.9188 12.5555 20.6123 13.6612 20.3725 14.7539L20.3096 14.9911H21.7306C21.8929 14.2746 22.0813 13.1929 22.2987 12.8654C22.5158 12.5384 22.877 12.2771 23.3514 12.4343L23.7675 11.4478Z" fill="#000066"/>
<path fill-rule="evenodd" clip-rule="evenodd" d="M20.7886 11.4478C19.8252 11.3251 19.5504 11.7817 19.2915 12.0087C19.3224 11.825 19.3791 11.6459 19.3679 11.4628H18.1128C17.9403 12.5555 17.6336 13.6612 17.3939 14.7539L17.3311 14.9911H18.7519C18.9144 14.2746 19.1028 13.1929 19.32 12.8654C19.5372 12.5384 19.8984 12.2771 20.3727 12.4343L20.7886 11.4478Z" fill="#000066"/>
<path fill-rule="evenodd" clip-rule="evenodd" d="M31.9941 14.4665C31.9941 14.3192 32.1179 14.1997 32.2706 14.1997C32.4232 14.1997 32.5471 14.3192 32.5471 14.4665C32.5471 14.6138 32.4232 14.7331 32.2706 14.7331C32.1179 14.7331 31.9941 14.6138 31.9941 14.4665ZM32.2706 14.6691C32.3866 14.6691 32.4808 14.5783 32.4808 14.4665C32.4808 14.3546 32.3866 14.2639 32.2706 14.2639C32.1547 14.2639 32.0603 14.3546 32.0603 14.4665C32.0603 14.5783 32.1547 14.6691 32.2706 14.6691ZM32.2333 14.5834H32.1766V14.3489H32.2792C32.3004 14.3489 32.3224 14.3495 32.3411 14.3612C32.3611 14.374 32.3721 14.3967 32.3721 14.4195C32.3721 14.4461 32.3561 14.4708 32.33 14.4802L32.3746 14.5834H32.312L32.275 14.4906H32.2333V14.5834ZM32.2333 14.4505H32.2647C32.2763 14.4505 32.2891 14.4515 32.2991 14.4462C32.3085 14.4405 32.3132 14.4296 32.3132 14.4194C32.3132 14.4104 32.3074 14.4 32.2998 14.3951C32.2899 14.3898 32.2739 14.3911 32.2632 14.3911H32.2333V14.4505Z" fill="white"/>
<path fill-rule="evenodd" clip-rule="evenodd" d="M15.7314 10.4743C15.655 10.7986 15.6148 10.982 15.5115 11.3759C14.8678 11.113 14.0048 10.9756 13.3427 11.3742C12.7181 11.7576 12.5071 12.3562 12.5524 13.019C12.5986 13.3383 12.8466 13.6497 13.1962 13.785C13.802 14.0006 14.3803 13.9216 15.0241 13.6043C14.9325 14.0036 14.8634 14.317 14.7835 14.6025C14.0117 14.8102 13.2786 14.8787 12.5071 14.6312C11.8174 14.3999 11.2569 13.801 11.2111 13.1546C11.0548 12.1169 11.5694 11.0551 12.617 10.5679C13.5909 10.1452 14.7019 10.2185 15.7314 10.4743Z" fill="white"/>
<path fill-rule="evenodd" clip-rule="evenodd" d="M26.6375 14.163C26.4338 14.3595 26.0879 14.7896 25.1484 14.7896C24.2926 14.7896 23.7489 14.181 24.0529 12.814L24.4072 11.2051H25.7132C25.7132 11.2051 25.3583 12.8154 25.3587 12.814C25.2382 13.3616 25.2669 13.7782 25.8435 13.7782C26.5224 13.7782 26.7261 13.3819 26.8542 12.814C26.8533 12.8151 27.2089 11.2051 27.2089 11.2051H28.5146L27.9281 13.7917C27.8616 14.0949 27.7981 14.4163 27.7612 14.7336H26.5351C26.5351 14.7336 26.6124 14.3024 26.6375 14.163Z" fill="white"/>
<path fill-rule="evenodd" clip-rule="evenodd" d="M28.9483 12.3208C28.9483 12.7683 29.2529 13.0741 29.9453 13.3024C30.4798 13.4826 30.5636 13.5356 30.5636 13.692C30.5636 13.9155 30.3247 14.0103 29.8099 14.0103C29.4178 14.0103 29.0537 13.9724 28.6321 13.8745C28.6321 13.8745 28.4663 14.6061 28.4492 14.6899C28.8159 14.7528 29.4503 14.7895 29.819 14.7895C31.2017 14.7895 31.8431 14.417 31.8431 13.6123C31.8431 13.1309 31.5744 12.8479 30.9181 12.6308C30.3649 12.4554 30.3036 12.4146 30.3036 12.2475C30.3036 12.0601 30.5223 11.9608 30.9474 11.9608C31.2029 11.9608 31.5612 11.9817 31.8942 12.0151L32.0775 11.1963C31.7379 11.1573 31.2202 11.126 30.9217 11.126C29.4541 11.126 28.9436 11.6711 28.9483 12.3208Z" fill="white"/>
<path fill-rule="evenodd" clip-rule="evenodd" d="M16.2862 11.2051H17.5964L16.8175 14.7336H15.5078L16.2862 11.2051Z" fill="white"/>
<path fill-rule="evenodd" clip-rule="evenodd" d="M24.0356 11.1901C23.0721 11.0672 22.7973 11.5238 22.5383 11.7508C22.5692 11.5671 22.626 11.3877 22.6147 11.2051H21.4164C21.244 12.2975 20.9372 13.4031 20.6977 14.496L20.6348 14.7331H21.9987C22.1613 14.0166 22.3496 12.9348 22.5669 12.6076C22.784 12.2804 23.1453 12.0192 23.6194 12.1764L24.0356 11.1901Z" fill="white"/>
<path fill-rule="evenodd" clip-rule="evenodd" d="M21.0562 11.1901C20.0926 11.0672 19.8178 11.5238 19.5588 11.7508C19.5897 11.5671 19.6467 11.3877 19.6352 11.2051H18.4369C18.2645 12.2975 17.958 13.4031 17.718 14.496L17.6553 14.7331H19.0191C19.1818 14.0166 19.3699 12.9348 19.5876 12.6076C19.8045 12.2804 20.1658 12.0192 20.64 12.1764L21.0562 11.1901Z" fill="white"/>
</svg>
