<svg width="43" height="26" viewBox="0 0 43 26" fill="none" xmlns="http://www.w3.org/2000/svg">
<rect y="0.0976562" width="43" height="25.0498" rx="4" fill="white"/>
<path fill-rule="evenodd" clip-rule="evenodd" d="M35.9725 12.6158C35.9725 17.2314 32.1344 20.9725 27.3986 20.9725C22.6639 20.9725 18.8252 17.2314 18.8252 12.6158C18.8252 8.00008 22.6639 4.25879 27.3986 4.25879C32.1344 4.25879 35.9725 8.00008 35.9725 12.6158Z" fill="#CC0000"/>
<path fill-rule="evenodd" clip-rule="evenodd" d="M20.7751 17.9227C20.5384 17.6429 20.3204 17.3472 20.1221 17.0376H23.1607C23.3431 16.7539 23.5078 16.4584 23.6548 16.1526H19.6283C19.4911 15.8663 19.3691 15.571 19.2653 15.2679H24.0171C24.3033 14.4346 24.4579 13.5432 24.4579 12.6158C24.4579 12.0085 24.3915 11.4164 24.2655 10.8461H19.0176C19.084 10.5446 19.1677 10.2496 19.2664 9.96113H24.0166C23.9124 9.65804 23.7911 9.36287 23.654 9.07655H19.6291C19.7762 8.77082 19.9412 8.47578 20.1231 8.19145H23.1598C22.9617 7.88268 22.7431 7.58751 22.5068 7.30727H20.7762C21.0425 6.99229 21.3318 6.69659 21.6416 6.42282C20.1198 5.07799 18.1001 4.25879 15.8847 4.25879C11.1492 4.25879 7.31055 8.00008 7.31055 12.6158C7.31055 17.2314 11.1492 20.9725 15.8847 20.9725C18.1002 20.9725 20.1201 20.1533 21.6416 18.809C21.9517 18.5347 22.2414 18.2384 22.5077 17.9227H20.7751Z" fill="#0066CC"/>
<path fill-rule="evenodd" clip-rule="evenodd" d="M21.5192 14.8743C21.1528 14.9688 20.7984 15.0151 20.4239 15.0143C19.2288 15.0132 18.6064 14.4827 18.6064 13.4682C18.6064 12.2829 19.3988 11.4111 20.4743 11.4111C21.354 11.4111 21.9155 11.8999 21.9155 12.6658C21.9155 12.9198 21.8776 13.1675 21.7845 13.5174H19.6593C19.5837 14.013 19.9549 14.2305 20.5867 14.2305C20.9652 14.2305 21.3074 14.1642 21.6865 14.0156L21.5192 14.8743ZM20.9477 12.8184C20.9477 12.7437 21.0659 12.2117 20.4508 12.2002C20.1112 12.2002 19.8677 12.4202 19.7692 12.8184H20.9477Z" fill="#000066"/>
<path fill-rule="evenodd" clip-rule="evenodd" d="M22.2392 12.586C22.2392 13.0238 22.4921 13.3263 23.0671 13.5515C23.5065 13.7269 23.5756 13.7777 23.5756 13.9345C23.5756 14.1518 23.3816 14.2513 22.9504 14.2487C22.6267 14.2464 22.3311 14.208 21.9825 14.1138L21.8281 14.9125C22.1382 14.9826 22.5727 15.0056 22.958 15.0143C24.1056 15.0143 24.6354 14.6481 24.6354 13.8564C24.6354 13.3805 24.4144 13.1006 23.8694 12.892C23.4138 12.7145 23.3604 12.6763 23.3604 12.5156C23.3604 12.327 23.5409 12.2316 23.8928 12.2316C24.1062 12.2316 24.3983 12.2506 24.6755 12.2834L24.8309 11.4804C24.5485 11.4423 24.1202 11.4116 23.8721 11.4116C22.6563 11.4116 22.2356 11.945 22.2392 12.586Z" fill="#000066"/>
<path fill-rule="evenodd" clip-rule="evenodd" d="M18.0245 14.9571H17.1329L17.1542 14.5931C16.8824 14.8802 16.5202 15.014 16.0288 15.014C15.4472 15.014 15.0488 14.6264 15.0488 14.0689C15.0488 13.2216 15.7414 12.7328 16.9323 12.7328C17.0546 12.7328 17.2103 12.7418 17.3702 12.7594C17.4033 12.6459 17.4122 12.5971 17.4122 12.5355C17.4122 12.3036 17.2248 12.2182 16.7237 12.2182C16.2296 12.22 15.8963 12.2915 15.5869 12.3724L15.7392 11.5951C16.2742 11.4625 16.6244 11.4111 17.0207 11.4111C17.9429 11.4111 18.4299 11.7637 18.4299 12.4259C18.4376 12.6028 18.3746 12.9575 18.3428 13.1128C18.3067 13.3385 18.0511 14.6481 18.0245 14.9571ZM17.2419 13.4111C17.129 13.4003 17.0798 13.397 17.0024 13.397C16.3944 13.397 16.0861 13.5734 16.0861 13.9217C16.0861 14.1404 16.2365 14.2771 16.4711 14.2771C16.908 14.2771 17.2235 13.9209 17.2419 13.4111Z" fill="#000066"/>
<path fill-rule="evenodd" clip-rule="evenodd" d="M26.5142 14.9019C26.2218 14.9799 25.9937 15.014 25.7472 15.014C25.2011 15.014 24.9029 14.7419 24.9029 14.2575C24.8857 14.1244 25.0192 13.5095 25.0495 13.3382C25.0796 13.1664 25.5527 10.6616 25.5527 10.6616H26.6137L26.4532 11.4905H26.9974L26.8496 12.3361H26.303C26.303 12.3361 26.0031 13.8043 26.0031 13.9165C26.0031 14.0944 26.1137 14.1718 26.3677 14.1718C26.4891 14.1718 26.5831 14.1607 26.6556 14.1396L26.5142 14.9019Z" fill="#000066"/>
<path fill-rule="evenodd" clip-rule="evenodd" d="M31.2555 11.411C30.4778 11.411 29.8702 11.7233 29.5172 12.2442L29.8236 11.4713C29.2591 11.2694 28.8951 11.5577 28.5662 11.9674C28.5662 11.9674 28.5111 12.0354 28.4561 12.0976V11.4902H27.4598C27.3248 12.5622 27.0862 13.6494 26.8996 14.7237L26.8545 14.9573H27.9262C28.028 14.4122 28.1115 13.9698 28.1947 13.6169C28.4223 12.6488 28.8055 12.353 29.3808 12.484C29.248 12.762 29.1752 13.0842 29.1752 13.4407C29.1752 14.3061 29.6571 15.0141 30.8543 15.0141C32.0622 15.0141 32.9369 14.3852 32.9369 12.9511C32.9369 12.0862 32.3539 11.411 31.2555 11.411ZM30.9436 14.173C30.5651 14.1786 30.3355 13.8691 30.3355 13.4058C30.3355 12.8569 30.6704 12.2366 31.2085 12.2366C31.6427 12.2366 31.7913 12.5722 31.7913 12.9297C31.7913 13.7105 31.463 14.173 30.9436 14.173Z" fill="#000066"/>
<path fill-rule="evenodd" clip-rule="evenodd" d="M14.5492 14.9572H13.4818L14.1161 11.6999L12.6558 14.9572H11.6828L11.5051 11.719L10.8687 14.9572H9.90039L10.7251 10.7202H12.393L12.5319 13.0822L13.5886 10.7202H15.3904L14.5492 14.9572Z" fill="#000066"/>
<path fill-rule="evenodd" clip-rule="evenodd" d="M21.7875 14.6129C21.4213 14.7076 21.0668 14.7539 20.6924 14.7531C19.4974 14.752 18.875 14.2214 18.875 13.207C18.875 12.0217 19.6672 11.1499 20.7426 11.1499C21.6224 11.1499 22.1841 11.6387 22.1841 12.4044C22.1841 12.6585 22.146 12.9056 22.053 13.2562H19.928C19.8523 13.7512 20.2232 13.9691 20.855 13.9691C21.2335 13.9691 21.5759 13.9028 21.9549 13.754L21.7875 14.6129ZM21.216 12.5572C21.216 12.4823 21.3342 11.9505 20.7194 11.9388C20.3798 11.9388 20.1363 12.1589 20.0375 12.5572H21.216Z" fill="white"/>
<path fill-rule="evenodd" clip-rule="evenodd" d="M22.5071 12.3246C22.5071 12.7625 22.7598 13.0648 23.3347 13.2903C23.7744 13.4658 23.8433 13.5165 23.8433 13.6728C23.8433 13.8905 23.6492 13.9901 23.2184 13.9876C22.8943 13.9852 22.5987 13.9468 22.2503 13.8526L22.0957 14.6509C22.4059 14.7213 22.8407 14.7443 23.2256 14.7531C24.3732 14.7531 24.9033 14.3868 24.9033 13.5949C24.9033 13.1192 24.6821 12.8391 24.1371 12.6307C23.6816 12.4534 23.628 12.4147 23.628 12.2545C23.628 12.0659 23.8088 11.9701 24.1606 11.9701C24.374 11.9701 24.6659 11.9895 24.9433 12.0223L25.0987 11.2193C24.8163 11.1806 24.388 11.1504 24.1401 11.1504C22.9241 11.1504 22.5033 11.6835 22.5071 12.3246Z" fill="white"/>
<path fill-rule="evenodd" clip-rule="evenodd" d="M18.2923 14.6957H17.4005L17.4221 14.3318C17.1501 14.6186 16.7882 14.7523 16.2967 14.7523C15.7152 14.7523 15.3164 14.3648 15.3164 13.8073C15.3164 12.9603 16.0091 12.4715 17.2 12.4715C17.3223 12.4715 17.4779 12.4806 17.6381 12.4975C17.6711 12.3843 17.6799 12.3359 17.6799 12.2742C17.6799 12.0417 17.4927 11.9567 16.9917 11.9567C16.4975 11.9587 16.1641 12.0301 15.8549 12.1112L16.0068 11.3337C16.5419 11.2011 16.892 11.1499 17.2886 11.1499C18.2107 11.1499 18.6976 11.5021 18.6976 12.1646C18.7056 12.3415 18.6422 12.6956 18.6108 12.8514C18.5743 13.0771 18.3189 14.3867 18.2923 14.6957ZM17.5096 13.1499C17.3968 13.1386 17.3475 13.1357 17.27 13.1357C16.6622 13.1357 16.3538 13.3118 16.3538 13.6598C16.3538 13.8789 16.5045 14.0159 16.7387 14.0159C17.1758 14.0159 17.4913 13.6593 17.5096 13.1499Z" fill="white"/>
<path fill-rule="evenodd" clip-rule="evenodd" d="M26.7817 14.6406C26.4891 14.7188 26.2612 14.7529 26.0146 14.7529C25.4685 14.7529 25.1705 14.4807 25.1705 13.9963C25.1531 13.8631 25.2866 13.2482 25.3168 13.077C25.3472 12.9051 25.8202 10.4004 25.8202 10.4004H26.8811L26.7208 11.229H27.265L27.117 12.0748H26.5705C26.5705 12.0748 26.2704 13.543 26.2704 13.6547C26.2704 13.8333 26.3811 13.9102 26.6352 13.9102C26.7566 13.9102 26.8504 13.8996 26.9233 13.8782L26.7817 14.6406Z" fill="white"/>
<path fill-rule="evenodd" clip-rule="evenodd" d="M32.0587 12.668C32.0587 13.4494 31.73 13.9119 31.2106 13.9119C30.8321 13.9172 30.6027 13.608 30.6027 13.1447C30.6027 12.5959 30.9376 11.9754 31.4755 11.9754C31.9098 11.9754 32.0587 12.311 32.0587 12.668ZM33.204 12.6899C33.204 11.8251 32.621 11.1499 31.5228 11.1499C30.2595 11.1499 29.4424 11.9706 29.4424 13.1796C29.4424 14.0449 29.9242 14.753 31.1216 14.753C32.3295 14.753 33.204 14.1241 33.204 12.6899Z" fill="white"/>
<path fill-rule="evenodd" clip-rule="evenodd" d="M27.7271 11.2289C27.5923 12.3012 27.3535 13.3882 27.1671 14.4625L27.1221 14.6965H28.1937C28.5799 12.6216 28.7096 12.0306 29.5189 12.2386L29.9083 11.2569C29.3436 11.055 28.9803 11.3435 28.6514 11.7534C28.6811 11.5689 28.7369 11.3907 28.7235 11.2289H27.7271Z" fill="white"/>
<path fill-rule="evenodd" clip-rule="evenodd" d="M14.8168 14.6966H13.7497L14.3839 11.4393L12.9234 14.6966H11.9504L11.7725 11.4583L11.1362 14.6966H10.168L10.9925 10.4595H12.6606L12.7487 13.0826L13.9229 10.4595H15.6581L14.8168 14.6966Z" fill="white"/>
</svg>
