<svg width="43" height="26" viewBox="0 0 43 26" fill="none" xmlns="http://www.w3.org/2000/svg">
<rect y="0.0976562" width="43" height="25.0498" rx="4" fill="white"/>
<path fill-rule="evenodd" clip-rule="evenodd" d="M24.1355 12.8253C24.1355 17.3252 20.3787 20.9725 15.7442 20.9725C11.1096 20.9725 7.35254 17.3252 7.35254 12.8253C7.35254 8.32551 11.1096 4.67773 15.7442 4.67773C20.3787 4.67773 24.1355 8.32551 24.1355 12.8253Z" fill="#CC0000"/>
<path fill-rule="evenodd" clip-rule="evenodd" d="M27.0098 4.67773C24.841 4.67773 22.8656 5.47641 21.3761 6.78663C21.0731 7.05366 20.7903 7.34208 20.5291 7.64916H22.2246C22.4561 7.92289 22.6695 8.21066 22.8643 8.51208H19.8893C19.7113 8.78903 19.5495 9.0768 19.4058 9.375H23.3475C23.4823 9.65427 23.6008 9.94191 23.7029 10.2375H19.0504C18.9536 10.5185 18.8719 10.8064 18.8066 11.0999H23.9464C24.0695 11.6562 24.135 12.2333 24.135 12.8253C24.135 13.7298 23.9832 14.6004 23.7029 15.4135H19.0504C19.1525 15.7089 19.271 15.9969 19.4055 16.2766H23.3475C23.2035 16.574 23.0425 16.862 22.8635 17.1394H19.8893C20.0833 17.4399 20.2971 17.728 20.5291 18.0014H22.2241C21.9635 18.3087 21.6803 18.5971 21.3764 18.8642C22.8658 20.1744 24.841 20.9725 27.0098 20.9725C31.6442 20.9725 35.4011 17.3252 35.4011 12.8253C35.4011 8.3259 31.6442 4.67773 27.0098 4.67773Z" fill="#FF9900"/>
<path fill-rule="evenodd" clip-rule="evenodd" d="M13.7849 13.7172C13.6892 13.7067 13.6471 13.7033 13.5814 13.7033C13.065 13.7033 12.8039 13.8754 12.8039 14.2151C12.8039 14.4244 12.9313 14.5574 13.1303 14.5574C13.5015 14.5574 13.7689 14.2144 13.7849 13.7172ZM14.4475 15.2148C14.326 15.2148 13.6924 15.2148 13.6924 15.2148L13.7098 14.8665C13.4796 15.1415 13.1723 15.2729 12.755 15.2729C12.2614 15.2729 11.9229 14.8987 11.9229 14.355C11.9229 13.5365 12.5115 13.0592 13.5221 13.0592C13.6257 13.0592 13.7581 13.0684 13.8936 13.085C13.9217 12.974 13.9291 12.9269 13.9291 12.8671C13.9291 12.6446 13.7705 12.5611 13.345 12.5611C12.8993 12.5568 12.5317 12.6645 12.3806 12.7127C12.3902 12.6568 12.507 11.9567 12.507 11.9567C12.9608 11.8272 13.2602 11.7788 13.5972 11.7788C14.3796 11.7788 14.794 12.1198 14.7931 12.7643C14.7947 12.9372 14.7651 13.1498 14.7194 13.4302C14.6403 13.9169 14.4706 14.9608 14.4475 15.2148Z" fill="#000066"/>
<path fill-rule="evenodd" clip-rule="evenodd" d="M11.5409 15.2147H10.6297L11.1519 12.038L9.9864 15.2147H9.36564L9.28886 12.0558L8.74038 15.2147H7.8877L8.59995 11.082H9.91001L9.98918 13.3953L10.7884 11.082H12.2454L11.5409 15.2147Z" fill="#000066"/>
<path fill-rule="evenodd" clip-rule="evenodd" d="M28.1359 13.7172C28.0403 13.7067 27.9986 13.7033 27.9331 13.7033C27.4163 13.7033 27.1555 13.8754 27.1555 14.2151C27.1555 14.4244 27.2824 14.5574 27.4818 14.5574C27.8527 14.5574 28.1203 14.2144 28.1359 13.7172ZM28.7989 15.2148C28.6772 15.2148 28.0441 15.2148 28.0441 15.2148L28.0612 14.8665C27.831 15.1415 27.5239 15.2729 27.1068 15.2729C26.6126 15.2729 26.2744 14.8987 26.2744 14.355C26.2744 13.5365 26.8633 13.0592 27.8737 13.0592C27.9771 13.0592 28.1092 13.0684 28.2449 13.085C28.2731 12.974 28.2804 12.9269 28.2804 12.8671C28.2804 12.6446 28.1218 12.5611 27.6963 12.5611C27.2506 12.5568 26.8831 12.6645 26.7315 12.7127C26.7416 12.6568 26.8587 11.9567 26.8587 11.9567C27.3122 11.8272 27.6119 11.7788 27.9483 11.7788C28.7313 11.7788 29.1451 12.1198 29.1443 12.7643C29.1459 12.9372 29.1166 13.1498 29.0706 13.4302C28.9918 13.9169 28.8217 14.9608 28.7989 15.2148Z" fill="#000066"/>
<path fill-rule="evenodd" clip-rule="evenodd" d="M18.4959 15.1637C18.2465 15.2399 18.0522 15.2729 17.8413 15.2729C17.3757 15.2729 17.1215 15.0131 17.1215 14.5345C17.115 14.3859 17.1885 13.9951 17.2463 13.6387C17.2991 13.3247 17.6415 11.3452 17.6415 11.3452H18.5468L18.4411 11.8539H18.9882L18.8647 12.6617H18.3158C18.2106 13.3007 18.0607 14.097 18.0589 14.2025C18.0589 14.3759 18.1542 14.4516 18.371 14.4516C18.4748 14.4516 18.5552 14.4413 18.6166 14.4199L18.4959 15.1637Z" fill="#000066"/>
<path fill-rule="evenodd" clip-rule="evenodd" d="M21.2722 15.1365C20.961 15.2289 20.6612 15.2739 20.3431 15.2729C19.3292 15.2716 18.8008 14.7579 18.8008 13.7735C18.8008 12.6247 19.473 11.7788 20.3858 11.7788C21.1322 11.7788 21.6093 12.2524 21.6093 12.9948C21.6093 13.2416 21.5766 13.4821 21.4975 13.8215H19.6942C19.6333 14.3092 19.9545 14.5122 20.4816 14.5122C20.8054 14.5122 21.0979 14.4473 21.4229 14.3009L21.2722 15.1365ZM20.7632 13.1442C20.7683 13.074 20.859 12.5442 20.3415 12.5442C20.0534 12.5442 19.847 12.7576 19.7633 13.1442H20.7632Z" fill="#000066"/>
<path fill-rule="evenodd" clip-rule="evenodd" d="M14.9934 12.9165C14.9934 13.3413 15.2055 13.6344 15.6869 13.8547C16.0557 14.0233 16.1131 14.0731 16.1131 14.2257C16.1131 14.4349 15.9503 14.5299 15.59 14.5299C15.318 14.5299 15.0652 14.4885 14.7736 14.3969C14.7736 14.3969 14.6541 15.1381 14.6484 15.1735C14.8554 15.217 15.04 15.2575 15.5965 15.2729C16.5577 15.2729 17.0016 14.9175 17.0016 14.1495C17.0016 13.6877 16.816 13.4167 16.3595 13.2128C15.9777 13.0427 15.9336 13.0046 15.9336 12.8477C15.9336 12.6661 16.0852 12.5732 16.3794 12.5732C16.5583 12.5732 16.8025 12.5918 17.0341 12.6236L17.1637 11.8441C16.9279 11.8076 16.5701 11.7788 16.3619 11.7788C15.3429 11.7788 14.99 12.2955 14.9934 12.9165Z" fill="#000066"/>
<path fill-rule="evenodd" clip-rule="evenodd" d="M25.7031 11.8674C25.9561 11.8674 26.1924 11.9312 26.5172 12.0905L26.6664 11.1936C26.5324 11.1426 26.0629 10.8438 25.665 10.8438C25.0555 10.8438 24.5397 11.1378 24.1775 11.6221C23.6487 11.4521 23.431 11.7956 23.1648 12.1381L22.928 12.1917C22.9459 12.079 22.9623 11.9671 22.9571 11.8537H22.12C22.006 12.8942 21.8035 13.9477 21.645 14.9885L21.6035 15.2146H22.515C22.6671 14.2549 22.7502 13.6406 22.8009 13.2244L23.1441 13.0398C23.1957 12.8543 23.3557 12.7919 23.6777 12.7995C23.6357 13.0187 23.6129 13.2495 23.6129 13.4884C23.6129 14.5881 24.2247 15.2727 25.205 15.2727C25.4576 15.2727 25.6746 15.2405 26.0105 15.1516L26.1701 14.2099C25.8681 14.354 25.6207 14.4219 25.3965 14.4219C24.8668 14.4219 24.5463 14.0422 24.5463 13.415C24.5463 12.5048 25.0227 11.8674 25.7031 11.8674Z" fill="#000066"/>
<path fill-rule="evenodd" clip-rule="evenodd" d="M33.416 11.082L33.2135 12.276C32.9649 11.9578 32.6972 11.7274 32.344 11.7274C31.8843 11.7274 31.4659 12.0657 31.192 12.564C30.8104 12.4872 30.4162 12.3565 30.4162 12.3565L30.4159 12.3597C30.4463 12.0812 30.4592 11.9117 30.4561 11.8538H29.6192C29.5055 12.8943 29.3028 13.9478 29.1444 14.9886L29.1025 15.2147H30.0142C30.1373 14.4391 30.2313 13.7943 30.3007 13.2836C30.6123 13.0102 30.7683 12.7723 31.0824 12.7878C30.9431 13.1151 30.8618 13.4918 30.8618 13.8784C30.8618 14.7182 31.2991 15.2728 31.9616 15.2728C32.2956 15.2728 32.5518 15.1609 32.8016 14.9018L32.7586 15.2145H33.6206L34.3146 11.082H33.416ZM32.2767 14.4383C31.9667 14.4383 31.8097 14.215 31.8097 13.7757C31.8097 13.1151 32.1032 12.6468 32.5162 12.6468C32.8293 12.6468 32.9991 12.878 32.9991 13.305C32.9991 13.9713 32.7007 14.4383 32.2767 14.4383Z" fill="#000066"/>
<path fill-rule="evenodd" clip-rule="evenodd" d="M11.8035 14.9697H10.8926L11.4147 11.793L10.2494 14.9697H9.62836L9.55171 11.8114L9.00309 14.9697H8.15039L8.86265 10.8374H10.1727L10.2093 13.3955L11.0933 10.8374H12.5082L11.8035 14.9697Z" fill="white"/>
<path fill-rule="evenodd" clip-rule="evenodd" d="M14.0464 13.4726C13.9509 13.4618 13.9087 13.4589 13.8431 13.4589C13.3267 13.4589 13.0655 13.6306 13.0655 13.9701C13.0655 14.1791 13.1931 14.3129 13.3921 14.3129C13.7631 14.3129 14.0306 13.9699 14.0464 13.4726ZM14.709 14.9697C14.5876 14.9697 13.9543 14.9697 13.9543 14.9697L13.9715 14.6217C13.7413 14.8966 13.434 15.028 13.0167 15.028C12.523 15.028 12.1846 14.6533 12.1846 14.1097C12.1846 13.2911 12.7734 12.8144 13.784 12.8144C13.8873 12.8144 14.0197 12.8236 14.1553 12.8406C14.1834 12.7293 14.1909 12.6821 14.1909 12.6219C14.1909 12.3996 14.0322 12.3168 13.6067 12.3168C13.1609 12.3116 12.7934 12.4194 12.6422 12.4674C12.6519 12.4118 12.7686 11.7118 12.7686 11.7118C13.2225 11.5825 13.522 11.5337 13.8589 11.5337C14.6412 11.5337 15.0555 11.875 15.0548 12.5193C15.0563 12.692 15.027 12.9056 14.9811 13.1853C14.9019 13.6716 14.7322 14.716 14.709 14.9697Z" fill="white"/>
<path fill-rule="evenodd" clip-rule="evenodd" d="M26.9281 10.9485L26.7789 11.8453C26.4536 11.6866 26.218 11.6223 25.9652 11.6223C25.2851 11.6223 24.8079 12.2605 24.8079 13.1708C24.8079 13.798 25.1286 14.1769 25.6582 14.1769C25.8826 14.1769 26.1304 14.1096 26.4319 13.965L26.2718 14.9067C25.9364 14.9954 25.7194 15.0279 25.4669 15.0279C24.4859 15.0279 23.875 14.3432 23.875 13.2437C23.875 11.7664 24.7196 10.7339 25.9269 10.7339C26.3247 10.7339 26.7946 10.8975 26.9281 10.9485Z" fill="white"/>
<path fill-rule="evenodd" clip-rule="evenodd" d="M28.3973 13.4726C28.3024 13.4618 28.2601 13.4589 28.1946 13.4589C27.6784 13.4589 27.4171 13.6306 27.4171 13.9701C27.4171 14.1791 27.5445 14.3129 27.7434 14.3129C28.1143 14.3129 28.3821 13.9699 28.3973 13.4726ZM29.0604 14.9697C28.9392 14.9697 28.3057 14.9697 28.3057 14.9697L28.3228 14.6217C28.0926 14.8966 27.7853 15.028 27.3684 15.028C26.8742 15.028 26.5361 14.6533 26.5361 14.1097C26.5361 13.2911 27.1244 12.8144 28.1353 12.8144C28.2386 12.8144 28.3707 12.8236 28.5062 12.8406C28.5345 12.7293 28.5419 12.6821 28.5419 12.6219C28.5419 12.3996 28.3837 12.3168 27.9579 12.3168C27.5124 12.3116 27.1451 12.4194 26.9936 12.4674C27.0032 12.4118 27.12 11.7118 27.12 11.7118C27.574 11.5825 27.8731 11.5337 28.2101 11.5337C28.9924 11.5337 29.407 11.875 29.406 12.5193C29.4078 12.692 29.3783 12.9056 29.3324 13.1853C29.2535 13.6716 29.0837 14.716 29.0604 14.9697Z" fill="white"/>
<path fill-rule="evenodd" clip-rule="evenodd" d="M18.7576 14.9183C18.5084 14.9946 18.3139 15.0276 18.1033 15.0276C17.6376 15.0276 17.3832 14.7677 17.3832 14.2896C17.3768 14.1405 17.4504 13.7504 17.5084 13.3936C17.5608 13.0793 17.9033 11.1001 17.9033 11.1001H18.8089L18.703 11.6087H19.1679L19.044 12.4162H18.5776C18.4725 13.0559 18.3225 13.8516 18.3206 13.9572C18.3206 14.131 18.4163 14.2062 18.6328 14.2062C18.7366 14.2062 18.8169 14.1963 18.8785 14.1744L18.7576 14.9183Z" fill="white"/>
<path fill-rule="evenodd" clip-rule="evenodd" d="M21.5349 14.892C21.2237 14.9846 20.9232 15.0283 20.6055 15.028C19.5915 15.0274 19.0635 14.513 19.0635 13.5288C19.0635 12.3796 19.7355 11.5337 20.6476 11.5337C21.3949 11.5337 21.8716 12.0073 21.8716 12.7506C21.8716 12.9969 21.8385 13.2373 21.7603 13.5768H19.9567C19.8956 14.0644 20.2172 14.2678 20.7438 14.2678C21.0678 14.2678 21.3602 14.2027 21.6856 14.0559L21.5349 14.892ZM21.0259 12.899C21.0308 12.8287 21.1219 12.2992 20.6044 12.2992C20.3161 12.2992 20.1096 12.513 20.0257 12.899H21.0259Z" fill="white"/>
<path fill-rule="evenodd" clip-rule="evenodd" d="M15.2558 12.6714C15.2558 13.0969 15.4682 13.3895 15.9498 13.61C16.3185 13.7784 16.3757 13.8283 16.3757 13.981C16.3757 14.1905 16.213 14.285 15.8524 14.285C15.5807 14.285 15.3278 14.244 15.0361 14.1527C15.0361 14.1527 14.9167 14.8933 14.9111 14.9282C15.118 14.9723 15.3027 15.0124 15.8589 15.028C16.8204 15.028 17.2643 14.6728 17.2643 13.9047C17.2643 13.4428 17.0784 13.1719 16.6221 12.9684C16.2402 12.7978 16.1963 12.7601 16.1963 12.603C16.1963 12.4213 16.3477 12.3279 16.6423 12.3279C16.8208 12.3279 17.0652 12.3472 17.2967 12.3788L17.4264 11.5995C17.1905 11.5633 16.833 11.5337 16.6246 11.5337C15.6054 11.5337 15.2527 12.0505 15.2558 12.6714Z" fill="white"/>
<path fill-rule="evenodd" clip-rule="evenodd" d="M33.882 14.9697H33.0203L33.063 14.6569C32.8131 14.9161 32.557 15.028 32.2231 15.028C31.5611 15.028 31.123 14.4741 31.123 13.6333C31.123 12.5155 31.8022 11.5732 32.6054 11.5732C32.9587 11.5732 33.2261 11.7133 33.4753 12.0316L33.6774 10.8374H34.5759L33.882 14.9697ZM32.538 14.1932C32.9625 14.1932 33.2604 13.7264 33.2604 13.0608C33.2604 12.6337 33.0908 12.4016 32.7777 12.4016C32.3644 12.4016 32.0711 12.8701 32.0711 13.531C32.0711 13.9708 32.2283 14.1932 32.538 14.1932Z" fill="white"/>
<path fill-rule="evenodd" clip-rule="evenodd" d="M29.8817 11.6088C29.7678 12.6491 29.5652 13.7025 29.4067 14.7435L29.3652 14.9695H30.2764C30.6024 12.9143 30.6807 12.5132 31.1921 12.5633C31.2734 12.1427 31.4249 11.7743 31.5378 11.5886C31.1563 11.5114 30.9432 11.7207 30.6639 12.1186C30.6862 11.9464 30.7263 11.7794 30.7188 11.6088H29.8817Z" fill="white"/>
<path fill-rule="evenodd" clip-rule="evenodd" d="M22.3821 11.6088C22.2677 12.6491 22.0648 13.7025 21.9066 14.7435L21.8652 14.9695H22.7767C23.1028 12.9143 23.1809 12.5132 23.6914 12.5633C23.7732 12.1427 23.9251 11.7743 24.0377 11.5886C23.6565 11.5114 23.443 11.7207 23.1643 12.1186C23.1863 11.9464 23.2267 11.7794 23.2188 11.6088H22.3821Z" fill="white"/>
</svg>
