<svg width="214" height="63" viewBox="0 0 214 63" fill="none" xmlns="http://www.w3.org/2000/svg">
<path d="M205.714 62.3472H8.69154C4.35326 62.3472 0.818359 58.8516 0.818359 54.5617V7.81708C0.818359 3.52713 4.35326 0.0316086 8.69154 0.0316086H205.714C210.052 0.0316086 213.587 3.52713 213.587 7.81708V54.5617C213.587 58.8516 210.02 62.3472 205.714 62.3472Z" fill="black"/>
<path d="M205.714 1.2392C209.377 1.2392 212.334 4.16272 212.334 7.78535V54.53C212.334 58.1526 209.377 61.0761 205.714 61.0761H8.69154C5.0281 61.0761 2.07165 58.1526 2.07165 54.53V7.78535C2.07165 4.16272 5.0281 1.2392 8.69154 1.2392H205.714ZM205.714 -0.00012207H8.69154C4.35326 -0.00012207 0.818359 3.4954 0.818359 7.78535V54.53C0.818359 58.8199 4.35326 62.3154 8.69154 62.3154H205.714C210.052 62.3154 213.587 58.8199 213.587 54.53V7.78535C213.587 3.4954 210.02 -0.00012207 205.714 -0.00012207Z" fill="#A6A6A6"/>
<path d="M75.5335 15.984C75.5335 17.2869 75.1479 18.3355 74.3766 19.0982C73.4768 20.0197 72.3199 20.4964 70.906 20.4964C69.5563 20.4964 68.3673 20.0197 67.4354 19.0982C66.4713 18.1449 65.9893 17.0009 65.9893 15.6027C65.9893 14.2045 66.4713 13.0605 67.4354 12.1389C68.3994 11.2174 69.5563 10.7407 70.906 10.7407C71.5808 10.7407 72.2235 10.8678 72.8341 11.122C73.4447 11.3763 73.9589 11.7258 74.3123 12.1707L73.4768 12.9969C72.8341 12.266 71.9986 11.8847 70.8738 11.8847C69.8776 11.8847 69.01 12.2343 68.303 12.9334C67.5639 13.6325 67.2104 14.5222 67.2104 15.6345C67.2104 16.7467 67.5639 17.6364 68.303 18.3355C69.0421 19.0346 69.9098 19.3842 70.8738 19.3842C71.9343 19.3842 72.802 19.0346 73.509 18.3355C73.9589 17.8907 74.2481 17.2551 74.3123 16.4289H70.8738V15.3167H75.4371C75.5335 15.5073 75.5335 15.7298 75.5335 15.984Z" fill="white" stroke="white" stroke-width="0.199309" stroke-miterlimit="10"/>
<path d="M82.7959 12.0752H78.4897V15.0305H82.3781V16.1427H78.4897V19.098H82.7959V20.242H77.2686V10.8994H82.7959C82.7959 10.9312 82.7959 12.0752 82.7959 12.0752Z" fill="white" stroke="white" stroke-width="0.199309" stroke-miterlimit="10"/>
<path d="M87.9373 20.2737H86.7161V12.0751H84.0811V10.9312H90.5724V12.0751H87.9373V20.2737Z" fill="white" stroke="white" stroke-width="0.199309" stroke-miterlimit="10"/>
<path d="M95.2646 20.2737V10.9312H96.4858V20.2737H95.2646Z" fill="white" stroke="white" stroke-width="0.199309" stroke-miterlimit="10"/>
<path d="M101.885 20.2737H100.663V12.0751H98.0283V10.9312H104.52V12.0751H101.885V20.2737Z" fill="white" stroke="white" stroke-width="0.199309" stroke-miterlimit="10"/>
<path d="M116.827 19.0664C115.895 20.0198 114.738 20.4964 113.356 20.4964C111.975 20.4964 110.818 20.0198 109.886 19.0664C108.954 18.1131 108.504 16.9691 108.504 15.6027C108.504 14.2363 108.954 13.0605 109.886 12.139C110.818 11.1856 111.975 10.709 113.356 10.709C114.738 10.709 115.895 11.1856 116.827 12.139C117.759 13.0923 118.241 14.2363 118.241 15.6027C118.209 16.9691 117.759 18.1131 116.827 19.0664ZM110.786 18.272C111.493 18.9711 112.328 19.3207 113.356 19.3207C114.353 19.3207 115.22 18.9711 115.927 18.272C116.634 17.5729 116.988 16.6831 116.988 15.5709C116.988 14.4587 116.634 13.5689 115.927 12.8698C115.22 12.1707 114.385 11.8212 113.356 11.8212C112.328 11.8212 111.493 12.1707 110.786 12.8698C110.079 13.5689 109.725 14.4587 109.725 15.5709C109.725 16.6831 110.079 17.5729 110.786 18.272Z" fill="white" stroke="white" stroke-width="0.199309" stroke-miterlimit="10"/>
<path d="M119.912 20.2737V10.9312H121.39L125.986 18.2082H126.05L125.986 16.3969V10.9312H127.207V20.2737H125.954L121.133 12.6471H121.069L121.133 14.4585V20.2737H119.912Z" fill="white" stroke="white" stroke-width="0.199309" stroke-miterlimit="10"/>
<path d="M108.183 33.9065C104.487 33.9065 101.466 36.7029 101.466 40.548C101.466 44.3613 104.487 47.1895 108.183 47.1895C111.878 47.1895 114.931 44.3613 114.931 40.548C114.931 36.7029 111.91 33.9065 108.183 33.9065ZM108.183 44.5519C106.158 44.5519 104.391 42.8995 104.391 40.548C104.391 38.1647 106.126 36.544 108.183 36.544C110.239 36.544 111.975 38.1647 111.975 40.548C111.975 42.8995 110.207 44.5519 108.183 44.5519ZM93.5289 33.9065C89.8333 33.9065 86.8125 36.7029 86.8125 40.548C86.8125 44.3613 89.8333 47.1895 93.5289 47.1895C97.2244 47.1895 100.245 44.3613 100.245 40.548C100.245 36.7029 97.2244 33.9065 93.5289 33.9065ZM93.5289 44.5519C91.5043 44.5519 89.7369 42.8995 89.7369 40.548C89.7369 38.1647 91.5043 36.544 93.5289 36.544C95.5534 36.544 97.3208 38.1647 97.3208 40.548C97.2887 42.8995 95.5534 44.5519 93.5289 44.5519ZM76.0472 35.9402V38.7684H82.8599C82.6671 40.3573 82.1208 41.5013 81.3174 42.2957C80.3212 43.2808 78.7787 44.3613 76.0472 44.3613C71.8696 44.3613 68.5917 41.0246 68.5917 36.8936C68.5917 32.7625 71.8696 29.4259 76.0472 29.4259C78.2967 29.4259 79.9677 30.3156 81.1888 31.4278L83.1812 29.4576C81.4781 27.837 79.2286 26.6295 76.0472 26.6295C70.2949 26.6295 65.4746 31.2372 65.4746 36.9253C65.4746 42.6135 70.2949 47.2212 76.0472 47.2212C79.1643 47.2212 81.4781 46.2044 83.3098 44.3295C85.1736 42.4864 85.7842 39.8489 85.7842 37.7516C85.7842 37.0842 85.7199 36.4805 85.6235 36.0038C85.6235 35.9402 76.0472 35.9402 76.0472 35.9402ZM147.452 38.1329C146.906 36.6393 145.203 33.9065 141.7 33.9065C138.261 33.9065 135.369 36.6076 135.369 40.548C135.369 44.2659 138.197 47.1895 142.021 47.1895C145.106 47.1895 146.874 45.3464 147.613 44.2659L145.331 42.7724C144.56 43.8846 143.532 44.6155 142.021 44.6155C140.543 44.6155 139.45 43.9482 138.776 42.6135L147.741 38.9591C147.773 38.8638 147.452 38.1329 147.452 38.1329ZM138.326 40.3255C138.261 37.7833 140.318 36.4487 141.828 36.4487C142.985 36.4487 143.982 37.0207 144.335 37.8469C144.303 37.8787 138.326 40.3255 138.326 40.3255ZM131.031 46.7763H133.987V27.2968H131.031V46.7763ZM126.211 35.3683H126.114C125.439 34.6056 124.186 33.9065 122.579 33.9065C119.237 33.9065 116.152 36.83 116.152 40.548C116.152 44.2659 119.237 47.1577 122.579 47.1577C124.186 47.1577 125.439 46.4586 126.114 45.6641H126.211V46.6175C126.211 49.1597 124.829 50.5261 122.644 50.5261C120.844 50.5261 119.719 49.255 119.269 48.1746L116.699 49.2232C117.438 50.971 119.398 53.1318 122.644 53.1318C126.114 53.1318 129.006 51.1299 129.006 46.2361V34.3196H126.211V35.3683ZM122.836 44.5519C120.812 44.5519 119.109 42.8677 119.109 40.548C119.109 38.1964 120.812 36.5122 122.836 36.5122C124.829 36.5122 126.403 38.2282 126.403 40.548C126.403 42.8677 124.829 44.5519 122.836 44.5519ZM161.27 27.265H154.233V46.7446H157.157V39.3722H161.27C164.548 39.3722 167.73 37.0207 167.73 33.3345C167.73 29.6165 164.516 27.265 161.27 27.265ZM161.335 36.6711H157.157V29.9979H161.335C163.52 29.9979 164.773 31.8092 164.773 33.3345C164.773 34.828 163.52 36.6711 161.335 36.6711ZM179.523 33.8747C177.402 33.8747 175.185 34.7963 174.285 36.8618L176.888 37.9422C177.435 36.8618 178.495 36.5122 179.588 36.5122C181.098 36.5122 182.673 37.4338 182.673 39.0227V39.2133C182.126 38.8955 181.002 38.4507 179.588 38.4507C176.792 38.4507 173.9 39.976 173.9 42.8359C173.9 45.4417 176.213 47.1259 178.784 47.1259C180.777 47.1259 181.869 46.2361 182.544 45.2193H182.64V46.7128H185.468V39.2451C185.501 35.8131 182.898 33.8747 179.523 33.8747ZM179.17 44.5519C178.206 44.5519 176.856 44.0753 176.856 42.8995C176.856 41.406 178.527 40.8022 179.973 40.8022C181.259 40.8022 181.869 41.0882 182.673 41.4695C182.416 43.2808 180.873 44.5519 179.17 44.5519ZM195.848 34.2878L192.474 42.7406H192.378L188.875 34.2878H185.693L190.931 46.0772L187.943 52.6552H191.028L199.126 34.2878H195.848ZM169.336 46.7763H172.293V27.2968H169.336V46.7763Z" fill="white"/>
<path d="M17.2391 11.7576C16.7892 12.2343 16.5 12.997 16.5 13.9503V48.4288C16.5 49.3821 16.7571 50.1448 17.2391 50.6215L17.3677 50.7168L36.906 31.3961V30.9512L17.3677 11.6305L17.2391 11.7576Z" fill="url(#paint0_linear_202_720)"/>
<path d="M43.3976 37.8467L36.9062 31.3959V30.951L43.4298 24.5001L43.5904 24.5955L51.3029 28.949C53.4881 30.1883 53.4881 32.2221 51.3029 33.4614L43.5904 37.7831C43.5583 37.7513 43.3976 37.8467 43.3976 37.8467Z" fill="url(#paint1_linear_202_720)"/>
<path d="M43.5583 37.7515L36.9062 31.1735L17.2715 50.5895C18.0106 51.3522 19.1996 51.4475 20.5493 50.6849L43.5583 37.7515Z" fill="url(#paint2_linear_202_720)"/>
<path d="M43.5582 24.5954L20.5171 11.662C19.1674 10.8993 17.9784 10.9947 17.2393 11.7573L36.874 31.1733L43.5582 24.5954Z" fill="url(#paint3_linear_202_720)"/>
<defs>
<linearGradient id="paint0_linear_202_720" x1="35.1541" y1="48.7741" x2="2.76974" y2="15.6382" gradientUnits="userSpaceOnUse">
<stop stop-color="#00A0FF"/>
<stop offset="0.0066" stop-color="#00A1FF"/>
<stop offset="0.2601" stop-color="#00BEFF"/>
<stop offset="0.5122" stop-color="#00D2FF"/>
<stop offset="0.7604" stop-color="#00DFFF"/>
<stop offset="1" stop-color="#00E3FF"/>
</linearGradient>
<linearGradient id="paint1_linear_202_720" x1="54.1249" y1="31.1755" x2="6.3369" y2="31.1755" gradientUnits="userSpaceOnUse">
<stop stop-color="#FFE000"/>
<stop offset="0.4087" stop-color="#FFBD00"/>
<stop offset="0.7754" stop-color="#FFA500"/>
<stop offset="1" stop-color="#FF9C00"/>
</linearGradient>
<linearGradient id="paint2_linear_202_720" x1="26.7748" y1="40.6026" x2="-17.141" y2="-4.3324" gradientUnits="userSpaceOnUse">
<stop stop-color="#FF3A44"/>
<stop offset="1" stop-color="#C31162"/>
</linearGradient>
<linearGradient id="paint3_linear_202_720" x1="-0.852143" y1="49.0702" x2="18.7582" y2="29.0049" gradientUnits="userSpaceOnUse">
<stop stop-color="#32A071"/>
<stop offset="0.0685" stop-color="#2DA771"/>
<stop offset="0.4762" stop-color="#15CF74"/>
<stop offset="0.8009" stop-color="#06E775"/>
<stop offset="1" stop-color="#00F076"/>
</linearGradient>
</defs>
</svg>
