<svg width="43" height="26" viewBox="0 0 43 26" fill="none" xmlns="http://www.w3.org/2000/svg">
<rect y="0.0976562" width="43" height="25.0498" rx="4" fill="white"/>
<path fill-rule="evenodd" clip-rule="evenodd" d="M17.8408 16.6084L19.163 8.64502H21.2764L19.9543 16.6084H17.8408Z" fill="#26337A"/>
<path fill-rule="evenodd" clip-rule="evenodd" d="M27.6198 8.84046C27.2019 8.68064 26.5447 8.50635 25.7261 8.50635C23.6366 8.50635 22.1658 9.58702 22.1536 11.1345C22.1403 12.2791 23.2031 12.9175 24.0044 13.2979C24.828 13.6879 25.1046 13.9374 25.1014 14.2861C25.0957 14.8195 24.444 15.0639 23.8364 15.0639C22.9903 15.0639 22.5407 14.9436 21.8457 14.6462L21.5739 14.5195L21.2783 16.302C21.7711 16.5238 22.6847 16.7163 23.6329 16.7264C25.8535 16.7264 27.2963 15.6588 27.3133 14.0064C27.3209 13.0987 26.7577 12.4107 25.5381 11.8427C24.7995 11.4734 24.3463 11.2288 24.3515 10.855C24.3519 10.5241 24.7344 10.1697 25.5621 10.1697C26.2534 10.1589 26.7539 10.3139 27.1438 10.4758L27.3336 10.5668L27.6198 8.84046Z" fill="#26337A"/>
<path fill-rule="evenodd" clip-rule="evenodd" d="M30.4344 13.7848C30.6095 13.3271 31.2763 11.5589 31.2763 11.5589C31.2639 11.5799 31.4504 11.0976 31.5572 10.7991L31.6998 11.486C31.6998 11.486 32.1053 13.3867 32.1888 13.7848C31.8598 13.7848 30.847 13.7848 30.4344 13.7848ZM33.0416 8.65283H31.4084C30.9018 8.65283 30.5226 8.79372 30.3006 9.31295L27.1621 16.6109H29.3819C29.3819 16.6109 29.744 15.6292 29.8262 15.4137C30.0683 15.4137 32.2252 15.4178 32.5331 15.4178C32.5964 15.6957 32.7904 16.6109 32.7904 16.6109H34.752L33.0416 8.65283Z" fill="#26337A"/>
<path fill-rule="evenodd" clip-rule="evenodd" d="M16.0673 8.65186L13.9988 14.081L13.7772 12.9774C13.3917 11.7058 12.1918 10.3276 10.8496 9.63703L12.742 16.6016L14.9787 16.6003L18.3069 8.65186H16.0673Z" fill="#26337A"/>
<path fill-rule="evenodd" clip-rule="evenodd" d="M12.0787 8.64648H8.67062L8.64258 8.81148C11.2945 9.47113 13.0491 11.0634 13.7774 12.9774L13.0368 9.31836C12.909 8.81372 12.5377 8.66413 12.0787 8.64648Z" fill="#EC982D"/>
</svg>
